<?xml version="1.0" encoding="UTF-8"?>
<svg width="517px" height="522px" viewBox="0 0 517 522" version="1.1" xmlns="http://www.w3.org/2000/svg" xmlns:xlink="http://www.w3.org/1999/xlink">
    <!-- Generator: Sketch 64 (93537) - https://sketch.com -->
    <title>icon-3</title>
    <desc>Created with Sketch.</desc>
    <g id="Page-1" stroke="none" stroke-width="1" fill="none" fill-rule="evenodd">
        <g id="icon-3" transform="translate(5.000000, 5.000000)" fill="#FCFCFE" fill-rule="nonzero">
            <g id="Group">
                <path d="M394.667,0 L117.333,0 C87.915,0 64,23.936 64,53.333 L64,96 C64,125.397 87.915,149.333 117.333,149.333 L394.666,149.333 C424.085,149.333 448,125.397 448,96 L448,53.333 C448,23.936 424.085,0 394.667,0 Z M426.667,96 C426.667,113.643 412.31,128 394.667,128 L117.333,128 C99.69,128 85.333,113.643 85.333,96 L85.333,53.333 C85.333,35.69 99.69,21.333 117.333,21.333 L394.666,21.333 C412.309,21.333 426.667,35.69 426.667,53.333 L426.667,96 L426.667,96 Z" id="Shape" stroke="#FCFCFE" stroke-width="9"></path>
                <path d="M501.333,64 L437.333,64 C431.445,64 426.666,68.779 426.666,74.667 C426.666,80.555 431.445,85.334 437.333,85.334 L501.333,85.334 C507.221,85.334 512,80.555 512,74.667 C512,68.779 507.221,64 501.333,64 Z" id="Path"></path>
                <path d="M232.768,228.864 L48.064,198.08 C32.576,195.499 21.333,182.229 21.333,166.528 L21.333,117.333 C21.333,99.69 35.69,85.333 53.333,85.333 L74.666,85.333 C80.554,85.333 85.333,80.554 85.333,74.666 C85.333,68.778 80.555,64 74.667,64 L53.333,64 C23.915,64 0,87.936 0,117.333 L0,166.528 C0,192.704 18.752,214.827 44.565,219.136 L229.269,249.92 C244.757,252.501 256,265.771 256,281.472 L256,288 C256,293.888 260.779,298.667 266.667,298.667 C272.555,298.667 277.334,293.888 277.334,288 L277.334,281.472 C277.334,255.296 258.581,233.173 232.768,228.864 Z" id="Path" stroke="#FCFCFE" stroke-width="9"></path>
                <path d="M266.667,277.333 C237.248,277.333 213.334,301.269 213.334,330.666 L213.334,458.666 C213.334,488.063 237.249,511.999 266.667,511.999 C296.085,511.999 320,488.064 320,458.667 L320,330.667 C320,301.269 296.085,277.333 266.667,277.333 Z M298.667,458.667 C298.667,476.31 284.31,490.667 266.667,490.667 C249.024,490.667 234.667,476.31 234.667,458.667 L234.667,330.667 C234.667,313.024 249.024,298.667 266.667,298.667 C284.31,298.667 298.667,313.024 298.667,330.667 L298.667,458.667 Z" id="Shape" stroke="#FCFCFE" stroke-width="9"></path>
            </g>
            <rect id="Rectangle" x="381" y="182" width="34" height="138" rx="17"></rect>
            <rect id="Rectangle" x="381" y="330" width="34" height="56" rx="17"></rect>
            <rect id="Rectangle" x="381" y="396" width="34" height="34" rx="17"></rect>
            <rect id="Rectangle" x="100" y="286" width="34" height="56" rx="17"></rect>
            <rect id="Rectangle" x="100" y="352" width="34" height="34" rx="17"></rect>
        </g>
    </g>
</svg>