<?xml version="1.0" encoding="UTF-8"?>
<svg width="513px" height="512px" viewBox="0 0 513 512" version="1.1" xmlns="http://www.w3.org/2000/svg" xmlns:xlink="http://www.w3.org/1999/xlink">
    <!-- Generator: Sketch 64 (93537) - https://sketch.com -->
    <title>icon-1</title>
    <desc>Created with Sketch.</desc>
    <g id="Page-1" stroke="none" stroke-width="1" fill="none" fill-rule="evenodd">
        <g id="icon-1" fill="#131419" fill-rule="nonzero">
            <path d="M497.496094,482 L446.464844,482 L446.464844,179.90625 L461.996094,186.289062 C463.863281,187.058594 465.792969,187.421875 467.691406,187.421875 C473.59375,187.421875 479.191406,183.914062 481.574219,178.117188 C484.722656,170.457031 481.0625,161.691406 473.402344,158.542969 L446.464844,147.472656 L446.464844,127.847656 L461.996094,134.230469 C463.859375,134.996094 465.792969,135.359375 467.691406,135.359375 C473.59375,135.359375 479.1875,131.855469 481.570312,126.058594 C484.722656,118.398438 481.0625,109.632812 473.398438,106.484375 L217.082031,1.128906 C209.421875,-2.019531 200.65625,1.640625 197.503906,9.300781 C194.355469,16.964844 198.015625,25.726562 205.675781,28.878906 L221.605469,35.425781 L221.605469,55.046875 L217.082031,53.1875 C209.421875,50.042969 200.65625,53.699219 197.507812,61.359375 C194.355469,69.023438 198.015625,77.789062 205.679688,80.9375 L221.605469,87.484375 L221.605469,117.359375 L94.148438,183.277344 C77.242188,192.019531 66.742188,209.28125 66.742188,228.324219 L66.742188,482 L15.5,482 C7.214844,482 0.5,488.714844 0.5,497 C0.5,505.285156 7.214844,512 15.5,512 L497.496094,512 C505.78125,512 512.496094,505.285156 512.496094,497 C512.496094,488.714844 505.78125,482 497.496094,482 L497.496094,482 Z M251.605469,47.753906 L416.464844,115.515625 L416.464844,135.140625 L251.605469,67.378906 L251.605469,47.753906 Z M174.171875,482 L174.171875,434.285156 C174.171875,426.003906 167.457031,419.285156 159.171875,419.285156 C150.890625,419.285156 144.171875,426.003906 144.171875,434.285156 L144.171875,482 L96.742188,482 L96.742188,389.171875 L159.171875,389.171875 C167.457031,389.171875 174.171875,382.453125 174.171875,374.171875 C174.171875,365.886719 167.457031,359.171875 159.171875,359.171875 L96.742188,359.171875 L96.742188,334.105469 L159.171875,334.105469 C167.457031,334.105469 174.171875,327.390625 174.171875,319.105469 C174.171875,310.824219 167.457031,304.105469 159.171875,304.105469 L96.742188,304.105469 L96.742188,278.257812 L159.171875,278.257812 C167.457031,278.257812 174.171875,271.542969 174.171875,263.257812 C174.171875,254.972656 167.457031,248.257812 159.171875,248.257812 L96.742188,248.257812 L96.742188,228.324219 C96.742188,220.542969 101.027344,213.492188 107.929688,209.921875 L221.605469,151.132812 L221.605469,482 L174.171875,482 Z M379.035156,482 L379.035156,434.285156 C379.035156,426.003906 372.320312,419.285156 364.035156,419.285156 C355.75,419.285156 349.035156,426.003906 349.035156,434.285156 L349.035156,482 L319.035156,482 L319.035156,434.285156 C319.035156,426.003906 312.320312,419.285156 304.035156,419.285156 C295.75,419.285156 289.035156,426.003906 289.035156,434.285156 L289.035156,482 L251.605469,482 L251.605469,99.8125 L416.464844,167.574219 L416.464844,482 L379.035156,482 Z" id="Shape"></path>
            <path d="M303.800781,308.664062 C312.085938,308.664062 318.800781,301.949219 318.800781,293.664062 L318.800781,263.257812 C318.800781,254.972656 312.085938,248.257812 303.800781,248.257812 C295.519531,248.257812 288.800781,254.972656 288.800781,263.257812 L288.800781,293.664062 C288.800781,301.949219 295.515625,308.664062 303.800781,308.664062 Z" id="Path"></path>
            <path d="M364.066406,308.664062 C372.351562,308.664062 379.066406,301.949219 379.066406,293.664062 L379.066406,263.257812 C379.066406,254.972656 372.351562,248.257812 364.066406,248.257812 C355.78125,248.257812 349.066406,254.972656 349.066406,263.257812 L349.066406,293.664062 C349.066406,301.949219 355.78125,308.664062 364.066406,308.664062 Z" id="Path"></path>
            <path d="M304.003906,328.757812 C295.71875,328.757812 289.003906,335.472656 289.003906,343.757812 L289.003906,374.164062 C289.003906,382.449219 295.71875,389.164062 304.003906,389.164062 C312.289062,389.164062 319.003906,382.449219 319.003906,374.164062 L319.003906,343.757812 C319.003906,335.472656 312.289062,328.757812 304.003906,328.757812 Z" id="Path"></path>
            <path d="M364.265625,328.757812 C355.984375,328.757812 349.265625,335.472656 349.265625,343.757812 L349.265625,374.164062 C349.265625,382.449219 355.984375,389.164062 364.265625,389.164062 C372.550781,389.164062 379.265625,382.449219 379.265625,374.164062 L379.265625,343.757812 C379.265625,335.472656 372.550781,328.757812 364.265625,328.757812 Z" id="Path"></path>
            <path d="M303.902344,228.433594 C312.1875,228.433594 318.902344,221.714844 318.902344,213.433594 L318.902344,183.027344 C318.902344,174.742188 312.1875,168.027344 303.902344,168.027344 C295.617188,168.027344 288.902344,174.742188 288.902344,183.027344 L288.902344,213.433594 C288.902344,221.714844 295.617188,228.433594 303.902344,228.433594 Z" id="Path"></path>
            <path d="M364.167969,228.433594 C372.449219,228.433594 379.167969,221.714844 379.167969,213.433594 L379.167969,183.027344 C379.167969,174.742188 372.449219,168.027344 364.167969,168.027344 C355.882812,168.027344 349.167969,174.742188 349.167969,183.027344 L349.167969,213.433594 C349.167969,221.714844 355.882812,228.433594 364.167969,228.433594 Z" id="Path"></path>
        </g>
    </g>
</svg>