<?xml version="1.0" encoding="UTF-8"?>
<svg width="500px" height="500px" viewBox="0 0 500 500" version="1.1" xmlns="http://www.w3.org/2000/svg" xmlns:xlink="http://www.w3.org/1999/xlink">
    <!-- Generator: Sketch 64 (93537) - https://sketch.com -->
    <title>icon-5</title>
    <desc>Created with Sketch.</desc>
    <g id="Page-1" stroke="none" stroke-width="1" fill="none" fill-rule="evenodd">
        <g id="icon-5" transform="translate(4.000000, 4.000000)" fill="#131419" fill-rule="nonzero" stroke="#131419" stroke-width="7.68000031">
            <path d="M148.224612,337.7835 C146.456728,336.0165 144.004502,335 141.504752,335 C138.995498,335 136.543272,336.0165 134.775388,337.7835 C133.007504,339.5505 132,342.0015 132,344.5 C132,346.9985 133.007504,349.4495 134.775388,351.2165 C136.543272,352.9835 138.995498,354 141.504752,354 C144.004502,354 146.456728,352.9835 148.224612,351.2165 C149.992496,349.4495 151,346.9985 151,344.5 C151,342.0015 149.992496,339.55145 148.224612,337.7835 Z" id="Path"></path>
            <path d="M426.521397,375.625764 L359.868122,308.971528 C341.925153,291.02952 312.731441,291.02952 294.788472,308.971528 L279.588297,324.171703 C272.369607,331.390393 260.624105,331.390393 253.407336,324.171703 L167.828297,238.592664 C160.609607,231.374934 160.609607,219.629432 167.828297,212.411703 L183.028472,197.211528 C200.97048,179.268559 200.97048,150.074847 183.028472,132.131878 L116.374236,65.4786026 C107.682795,56.7871616 96.1265502,52 83.8344105,52 C71.5432314,52 59.9860262,56.7871616 51.2945852,65.4786026 L35.3460262,81.4262009 C12.5524891,104.220699 0,134.525939 0,166.761223 C0,198.996507 12.5524891,229.301747 35.3460262,252.096245 L107.986376,324.736594 C111.737904,328.488122 117.821048,328.488122 121.573537,324.736594 C125.325066,320.985066 125.325066,314.901921 121.573537,311.149432 L48.9322271,238.509083 C29.7682096,219.344105 19.2139738,193.863493 19.2139738,166.761223 C19.2139738,139.658952 29.7682096,114.178341 48.9331878,95.0133624 L64.8817467,79.0648035 C69.9436681,74.0019214 76.6752838,71.2139738 83.8344105,71.2139738 C90.9935371,71.2139738 97.7251528,74.0019214 102.788035,79.0648035 L169.442271,145.718079 C179.893712,156.168559 179.893712,173.173886 169.442271,183.624367 L160.801747,192.264891 L99.6129258,131.07607 C95.8613974,127.324541 89.7782533,127.325502 86.0267249,131.07607 C82.2751965,134.827598 82.2751965,140.910742 86.0267249,144.663231 L148.153188,206.789694 C144.922358,212.426114 143.191179,218.830131 143.191179,225.502183 C143.191179,235.579913 147.115633,245.053362 154.241135,252.179825 L239.820175,337.758865 C246.945677,344.884367 256.420087,348.808821 266.497817,348.808821 C273.17083,348.808821 279.573886,347.078603 285.210306,343.847773 L355.728472,414.365939 C357.604716,416.242183 360.063144,417.179825 362.521572,417.179825 C364.98,417.179825 367.439389,416.241223 369.314672,414.365939 C373.066201,410.61441 373.066201,404.531266 369.314672,400.778777 L299.735109,331.198253 L308.375633,322.557729 C318.826114,312.106288 335.831441,312.107249 346.281921,322.557729 L412.936157,389.211965 C417.999039,394.274847 420.786987,401.005502 420.786987,408.16559 C420.786987,415.325677 417.999039,422.056332 412.936157,427.119214 L396.987598,443.067773 C377.82262,462.23179 352.342009,472.786026 325.238777,472.786026 C298.135546,472.786026 272.654934,462.23179 253.490917,443.066812 L173.01607,362.591965 C169.264541,358.840437 163.181397,358.840437 159.428908,362.591965 C155.67738,366.343493 155.67738,372.426638 159.428908,376.178166 L239.903755,456.653013 C262.698253,479.447511 293.004454,492 325.238777,492 C357.4731,492 387.779301,479.447511 410.572838,456.653974 L426.521397,440.705415 C435.212838,432.013974 440,420.456769 440,408.16559 C440,395.87345 435.212838,384.317205 426.521397,375.625764 Z" id="Path"></path>
            <path d="M76.2165,107.7835 C74.4495,106.0165 71.9985,105 69.5,105 C67.0015,105 64.5505,106.0165 62.7835,107.7835 C61.0165,109.5505 60,111.992 60,114.5 C60,116.9985 61.0165,119.4495 62.7835,121.2165 C64.5505,122.9835 67.0015,124 69.5,124 C71.9985,124 74.4495,122.9835 76.2165,121.2165 C77.9835,119.4495 79,116.9985 79,114.5 C79,111.992 77.9835,109.55145 76.2165,107.7835 Z" id="Path"></path>
            <path d="M379.059651,0 L320.93939,0 C258.664668,0 208,50.6568045 208,112.921861 C208,162.302707 239.79078,205.468647 286.193602,220.394774 L286.193602,245.413534 C286.193602,249.014211 288.211867,252.311955 291.419037,253.950282 C292.795868,254.65297 294.29063,255 295.780598,255 C297.762428,255 299.73467,254.386466 301.400098,253.181447 L339.208278,225.843722 L379.06061,225.843722 C441.335332,225.843722 492,175.186917 492,112.921861 C492,50.6568045 441.334373,0 379.059651,0 Z M379.059651,206.670789 L336.103698,206.670789 C334.086393,206.670789 332.119903,207.307331 330.485157,208.489342 L305.369511,226.649944 L305.369511,213.167538 C305.369511,208.769267 302.375193,204.93468 298.108553,203.867707 C256.344383,193.422293 227.176867,156.02453 227.176867,112.921861 C227.176867,61.2287594 269.239223,19.1729323 320.940349,19.1729323 L379.06061,19.1729323 C430.760777,19.1729323 472.823133,61.2287594 472.823133,112.921861 C472.823133,164.614962 430.760777,206.670789 379.059651,206.670789 Z" id="Shape"></path>
            <path d="M303.2165,106.7835 C301.4495,105.0165 298.9985,104 296.5,104 C294.0015,104 291.5505,105.0165 289.7835,106.7835 C288.0165,108.5505 287,111.0015 287,113.5 C287,116.008 288.0165,118.4495 289.7835,120.2165 C291.5505,121.9835 294.0015,123 296.5,123 C298.9985,123 301.4495,121.9835 303.2165,120.2165 C304.9835,118.4495 306,116.008 306,113.5 C306,111.0015 304.9835,108.55145 303.2165,106.7835 Z" id="Path"></path>
            <path d="M356.2165,106.7835 C354.4495,105.0165 351.9985,104 349.5,104 C346.992,104 344.541,105.0165 342.7835,106.7835 C341.007,108.5505 340,111.0015 340,113.5 C340,116.008 341.007,118.4495 342.7835,120.2165 C344.541,121.9835 346.992,123 349.5,123 C351.9985,123 354.4495,121.9835 356.2165,120.2165 C357.9835,118.4495 359,116.008 359,113.5 C359,111.0015 357.9835,108.55145 356.2165,106.7835 Z" id="Path"></path>
            <path d="M409.2165,106.7835 C407.4495,105.0165 405.008,104 402.5,104 C400.0015,104 397.5505,105.0165 395.7835,106.7835 C394.0165,108.5505 393,111.0015 393,113.5 C393,116.008 394.0165,118.4495 395.7835,120.2165 C397.5505,121.9835 400.0015,123 402.5,123 C405.008,123 407.4495,121.9835 409.2165,120.2165 C410.9835,118.4495 412,116.008 412,113.5 C412,111.0015 410.9835,108.55145 409.2165,106.7835 Z" id="Path"></path>
        </g>
    </g>
</svg>