<?xml version="1.0" encoding="UTF-8"?>
<svg width="492px" height="347px" viewBox="0 0 492 347" version="1.1" xmlns="http://www.w3.org/2000/svg" xmlns:xlink="http://www.w3.org/1999/xlink">
    <!-- Generator: Sketch 64 (93537) - https://sketch.com -->
    <title>icon-4</title>
    <desc>Created with Sketch.</desc>
    <g id="Page-1" stroke="none" stroke-width="1" fill="none" fill-rule="evenodd">
        <g id="icon-4" fill="#131419" fill-rule="nonzero">
            <path d="M172.4,169.5 C143.5,169.5 119.9,193 119.9,222 C119.9,251 143.4,274.5 172.4,274.5 C201.3,274.5 224.9,251 224.9,222 C224.9,193 201.3,169.5 172.4,169.5 Z M172.4,249.9 C157,249.9 144.4,237.4 144.4,221.9 C144.4,206.4 156.9,193.9 172.4,193.9 C187.8,193.9 200.4,206.4 200.4,221.9 C200.4,237.4 187.8,249.9 172.4,249.9 Z" id="Shape"></path>
            <path d="M372.1,221.9 C372.1,193 348.6,169.4 319.6,169.4 C290.7,169.4 267.1,192.9 267.1,221.9 C267.1,250.9 290.6,274.4 319.6,274.4 C348.6,274.4 372.1,250.8 372.1,221.9 Z M319.6,249.9 C304.2,249.9 291.6,237.4 291.6,221.9 C291.6,206.4 304.1,193.9 319.6,193.9 C335,193.9 347.6,206.4 347.6,221.9 C347.6,237.4 335.1,249.9 319.6,249.9 Z" id="Shape"></path>
            <path d="M457.8,91.6 C449.4,41.6 408.1,4.6 357.2,1.5 L355.1,1.1 C354.4,1 353.7,0.9 353,0.9 L141.5,0.9 C88.2,0.9 43.1,39 34.3,91.3 L2,264.4 C1,269.1 0.5,273.8 0.5,278.5 C0.5,316.3 31.2,347 69,347 C91.8,347 113.1,335.7 125.6,317.1 L141.2,295.5 C145.2,290 143.9,282.4 138.4,278.4 C132.9,274.4 125.3,275.7 121.3,281.2 L105.5,303.1 C97.3,315.3 83.6,322.6 69,322.6 C44.7,322.6 25,302.8 25,278.6 C25,275.6 25.3,272.5 26,269.2 L58.3,95.7 C65.1,55 100.1,25.5 141.4,25.5 L352,25.5 L353.7,25.8 C354.2,25.9 354.6,25.9 355.1,26 C394.1,28.1 427.1,57.5 433.6,95.9 L466,269.4 C466.6,272.4 466.9,275.5 466.9,278.5 C466.9,302.8 447.1,322.5 422.9,322.5 C408.2,322.5 394.6,315.2 386.1,302.7 L369.3,279.5 C365.3,274 357.7,272.8 352.2,276.7 C346.7,280.7 345.5,288.3 349.4,293.8 L365.9,316.7 C378.7,335.6 399.9,346.9 422.7,346.9 C460.5,346.9 491.2,316.2 491.2,278.4 C491.2,273.7 490.7,268.9 489.8,264.5 L457.8,91.6 Z" id="Path"></path>
            <circle id="Oval" cx="309.5" cy="99.8" r="16.6"></circle>
            <circle id="Oval" cx="377.4" cy="99.8" r="16.6"></circle>
            <path d="M149.7,50.6 C142.9,50.6 137.4,56.1 137.4,62.9 L137.4,85 L115.3,85 C108.5,85 103,90.5 103,97.3 C103,104.1 108.5,109.6 115.3,109.6 L137.4,109.6 L137.4,131.7 C137.4,138.5 142.9,144 149.7,144 C156.5,144 162,138.5 162,131.7 L162,109.6 L184.1,109.6 C190.9,109.6 196.4,104.1 196.4,97.3 C196.4,90.5 190.9,85 184.1,85 L162,85 L162,62.9 C162,56.1 156.5,50.6 149.7,50.6 Z" id="Path"></path>
            <circle id="Oval" cx="343.4" cy="133.7" r="16.6"></circle>
            <circle id="Oval" cx="343.4" cy="65.8" r="16.6"></circle>
        </g>
    </g>
</svg>