<?xml version="1.0" encoding="UTF-8"?>
<svg width="512px" height="507px" viewBox="0 0 512 507" version="1.1" xmlns="http://www.w3.org/2000/svg" xmlns:xlink="http://www.w3.org/1999/xlink">
    <!-- Generator: Sketch 64 (93537) - https://sketch.com -->
    <title>icon-2</title>
    <desc>Created with Sketch.</desc>
    <g id="Page-1" stroke="none" stroke-width="1" fill="none" fill-rule="evenodd">
        <g id="icon-2" fill="#131419" fill-rule="nonzero">
            <path d="M256,151.077 C264.284271,151.077 271,157.792729 271,166.077 C271,174.361271 264.284271,181.077 256,181.077 C247.715729,181.077 241,174.361271 241,166.077 C241,157.792729 247.715729,151.077 256,151.077 Z" id="Path"></path>
            <path d="M394.187,345.407 L324.786,195.928 C328.774,186.774 331,176.682 331,166.077 C331,141.593 319.204,119.815 301,106.118 L301,45.077 C301,20.264 280.813,0.077 256,0.077 C231.187,0.077 211,20.264 211,45.077 L211,106.118 C192.796,119.815 181,141.593 181,166.077 C181,176.683 183.226,186.774 187.214,195.928 L117.813,345.407 C73.567,354.836 0,377.136 0,422.077 C0,432.445281 8.66059103,445.567583 25.9817731,461.443906 C30.9869376,466.031515 38.7634189,465.693059 43.3510531,460.687917 C43.9857732,459.995433 44.5390325,459.232482 45,458.414 C49.1045995,451.12598 47.5089887,441.955449 41.1839868,436.482121 C33.7279956,430.030066 30,425.228359 30,422.077 C30,412.155 49.677,394.236 101.698,380.116 L83.2,419.959 C74.966,437.618 79.222,457.947 92.317,470.944 L85.3375737,485.335293 C81.7225197,492.789388 84.8345199,501.762711 92.2885,505.378 C99.7423046,508.993204 108.715509,505.881404 112.330714,498.427599 C112.330745,498.427535 112.330776,498.427471 112.330807,498.427406 L119.443,483.763 L119.443,483.763 C138.153,485.676 156.523,475.679 164.779,457.972 L208.601,363.577 C224.121,362.586 240.022,362.078 256,362.078 C271.978,362.078 287.88,362.586 303.399,363.577 L347.232,457.995 C355.529,475.787 374.002,485.659 392.557,483.763 L399.670001,498.427999 C403.285256,505.881634 412.258364,508.993256 419.711999,505.378001 C419.711999,505.378 419.712,505.378 419.712,505.378 C427.165666,501.762729 430.277358,492.789624 426.662193,485.335906 L419.695,470.971 L419.695,470.971 C432.546,458.264 437.205,437.984 428.81,419.982 L410.301,380.117 C462.323,394.235 482,412.155 482,422.077 C482,425.273751 478.165154,430.168056 470.495462,436.759916 C464.348283,442.043226 462.786173,450.931642 466.763587,457.994315 L467.0005,458.415 C470.332007,464.330739 477.82838,466.425672 483.744119,463.094166 C484.562647,462.633203 485.325641,462.079937 486.018172,461.445212 C503.340057,445.568645 512.001,432.445907 512.001,422.077 C512.001,377.099 438.315,354.811 394.187,345.407 Z M241,45.077 C241,36.806 247.729,30.077 256,30.077 C264.271,30.077 271,36.806 271,45.077 L271,92.586 C266.152,91.598 261.136,91.077 256,91.077 C250.864,91.077 245.848,91.598 241,92.586 L241,45.077 Z M256,121.077 C280.813,121.077 301,141.264 301,166.077 C301,190.89 280.813,211.077 256,211.077 C231.187,211.077 211,190.89 211,166.077 C211,141.264 231.187,121.077 256,121.077 Z M137.578,445.316 C134.074,452.829 125.158,456.076 117.644,452.571 C110.16,449.082 106.867,440.19 110.399,432.615 L207.584,223.292 C215.217,229.761 224.146,234.741 233.934,237.76 L137.578,445.316 Z M222.895,332.785 L256,261.476 L289.105,332.786 C267.195,331.865 244.805,331.865 222.895,332.785 L222.895,332.785 Z M374.433,445.339 L278.066,237.76 C287.853,234.741 296.783,229.761 304.415,223.292 L401.611,432.637 C405.114,440.149 401.871,449.066 394.357,452.57 C386.815,456.089 377.909,452.793 374.433,445.339 Z" id="Shape"></path>
        </g>
    </g>
</svg>