<?xml version="1.0" encoding="utf-8"?>
<!-- Generator: Adobe Illustrator 24.3.0, SVG Export Plug-In . SVG Version: 6.00 Build 0)  -->
<svg version="1.1" id="图层_1" xmlns="http://www.w3.org/2000/svg" xmlns:xlink="http://www.w3.org/1999/xlink" x="0px" y="0px"
	 viewBox="0 0 500 500" style="enable-background:new 0 0 500 500;" xml:space="preserve">
<desc>Created with Sketch.</desc>
<g>
	<path d="M32.9,323.3c6.4,70.3,65.7,125.6,137.7,125.6c70.6,0,129.1-53.3,137.3-121.7C204.5,391.3,116.7,275.7,32.9,323.3z
		 M32.9,323.3c6.4,70.3,65.7,125.6,137.7,125.6c70.6,0,129.1-53.3,137.3-121.7C204.5,391.3,116.7,275.7,32.9,323.3z M32.9,323.3
		c6.4,70.3,65.7,125.6,137.7,125.6c70.6,0,129.1-53.3,137.3-121.7C204.5,391.3,116.7,275.7,32.9,323.3z"/>
	<path d="M331.3,295.7c-0.6-6.6-6.9-22.7-16.3-32.6l-102.2-100c-14.7-13-31.5-13.8-42.2-13.8c-89.1,0-161.4,72.3-161.4,161.4
		c0,89.1,72.3,161.4,161.4,161.4S332,399.8,332,310.7C332,305.6,331.8,300.6,331.3,295.7z M170.6,172.4c8.5,0,18.2,0.6,26.5,7.7
		l101.4,99.2c5.3,5.8,9.4,16,9.8,18.6c0.4,4.2,0.6,8.5,0.6,12.8c0,5.6-0.3,11.1-1,16.5c-8.2,68.5-66.6,121.7-137.3,121.7
		c-72,0-131.3-55.3-137.7-125.6c-0.4-4.2-0.6-8.4-0.6-12.7C32.3,234.4,94.4,172.4,170.6,172.4z"/>
	<path d="M334.6,241.1c0,0-5.9,10.7-17.6-0.7c-11.7-11.5-62.5-61-73.8-71.9c-11.3-11,1.2-17.2,1.2-17.2l16.3-9.7
		c0,0,10.9-6,20.8,3.6c9.9,9.6,46.5,45.4,57.3,55.9s4.1,22.3,4.1,22.3L334.6,241.1z"/>
	<path d="M271.4,35.4l11,22.2l29.3,4.2c4.9,0.7,5.5,2.9,1.9,6.7l-21,20.4l4.8,28.3c0.6,4.1-3.3,6.5-6.8,4.1l-24.8-12.9l-25.2,13.3
		c-3.4,1.7-6.9,0.6-6.2-4.1l4.7-28.6l-20.4-19.8c-4-3.6-1.9-7,2.7-7.6l27.9-4.1c0,0,5.7-11.6,11-22.2
		C264.1,28.4,268.3,28.5,271.4,35.4z"/>
	<path d="M429.7,128l15.1,30.7l40.4,5.9c6.8,1,7.6,4,2.7,9.3l-28.9,28.2l6.7,39c0.9,5.6-4.5,8.9-9.4,5.6l-34.2-17.8l-34.8,18.3
		c-4.7,2.4-9.5,0.9-8.6-5.7l6.5-39.4l-28.1-27.3c-5.4-5-2.6-9.6,3.7-10.4l38.5-5.6c0,0,7.9-16,15.1-30.6
		C419.7,118.3,425.4,118.4,429.7,128z"/>
</g>
</svg>
