<svg width="1200" height="548" viewBox="0 0 1200 548" xmlns="http://www.w3.org/2000/svg"><title>Pattern-Abbreviated-Prod</title><g fill="#000" fill-rule="evenodd"><path d="M31.528 22.375h56.944c1.806 0 3.345.637 4.618 1.91C94.363 25.558 95 27.12 95 28.972v48.056c0 1.852-.637 3.414-1.91 4.687-1.273 1.273-2.812 1.91-4.618 1.91H31.528c-1.806 0-3.345-.637-4.618-1.91C25.637 80.442 25 78.88 25 77.028V28.972c0-1.852.637-3.414 1.91-4.687 1.273-1.273 2.812-1.91 4.618-1.91zm0 4.375c-.556 0-1.053.22-1.493.66-.44.44-.66.96-.66 1.562v1.32c0 .231.081.428.243.59a.804.804 0 0 0 .59.243h15.834a.804.804 0 0 0 .59-.243.804.804 0 0 0 .243-.59v-2.709a.804.804 0 0 0-.243-.59.804.804 0 0 0-.59-.243H31.528zm58.264 13.125a.804.804 0 0 0 .59-.243.804.804 0 0 0 .243-.59v-10.07c0-.602-.22-1.122-.66-1.562-.44-.44-.937-.66-1.493-.66H53.89c-.324 0-.556.116-.695.347l-4.166 6.18h-18.82a.804.804 0 0 0-.59.244.804.804 0 0 0-.243.59v4.93c0 .232.081.429.243.59a.804.804 0 0 0 .59.244h59.584zM60 75.986c4.537 0 8.403-1.609 11.597-4.826 3.195-3.218 4.792-7.084 4.792-11.597 0-4.514-1.597-8.38-4.792-11.598-3.194-3.217-7.06-4.826-11.597-4.826s-8.403 1.609-11.597 4.826c-3.195 3.218-4.792 7.084-4.792 11.597 0 4.514 1.597 8.38 4.792 11.598 3.194 3.217 7.06 4.826 11.597 4.826zm0-28.472c3.333 0 6.169 1.18 8.507 3.542 2.338 2.36 3.507 5.196 3.507 8.507 0 3.31-1.17 6.145-3.507 8.506-2.338 2.362-5.174 3.542-8.507 3.542-3.333 0-6.169-1.18-8.507-3.542-2.338-2.36-3.507-5.196-3.507-8.507 0-3.31 1.17-6.145 3.507-8.506 2.338-2.362 5.174-3.542 8.507-3.542zM53.437 61.75c.58 0 1.088-.22 1.528-.66.44-.44.66-.96.66-1.562 0-1.158.428-2.165 1.285-3.021.856-.857 1.886-1.285 3.09-1.285.602 0 1.123-.22 1.563-.66.44-.44.66-.96.66-1.562 0-.602-.22-1.123-.66-1.563-.44-.44-.961-.66-1.563-.66-2.407 0-4.468.857-6.18 2.57-1.714 1.713-2.57 3.773-2.57 6.18 0 .603.22 1.123.66 1.563.44.44.949.66 1.528.66zM60 458c6.065 0 11.227 2.13 15.486 6.389 4.26 4.26 6.389 9.421 6.389 15.486 0 6.065-2.13 11.227-6.389 15.486-4.26 4.26-9.421 6.389-15.486 6.389-6.065 0-11.227-2.13-15.486-6.389-4.26-4.26-6.389-9.421-6.389-15.486 0-6.065 2.13-11.227 6.389-15.486C48.774 460.129 53.935 458 60 458zm25.07 45.625c2.916.74 5.3 2.303 7.152 4.688 1.852 2.384 2.778 5.08 2.778 8.09v5.07c0 1.805-.637 3.344-1.91 4.617-1.273 1.273-2.812 1.91-4.618 1.91H31.528c-1.806 0-3.345-.637-4.618-1.91-1.273-1.273-1.91-2.812-1.91-4.618v-5.07c0-3.008.926-5.705 2.778-8.09 1.852-2.384 4.236-3.946 7.153-4.687l6.944-1.736c1.76-.417 3.403-.185 4.93.694 4.075 2.361 8.473 3.542 13.195 3.542 4.722 0 9.12-1.18 13.194-3.542 1.528-.88 3.125-1.11 4.792-.694l7.083 1.736zM141.736 512.167c0-.463.162-.857.486-1.18.324-.325.695-.487 1.111-.487h3.334c.416 0 .787.162 1.11.486.325.324.487.718.487 1.18v14.167c0 .463-.162.857-.486 1.18-.324.325-.695.487-1.111.487h-3.334c-.416 0-.787-.162-1.11-.486a1.607 1.607 0 0 1-.487-1.18v-14.167zm17.5-6.598c0-.463.162-.844.486-1.145.324-.301.695-.452 1.111-.452h3.334c.416 0 .787.15 1.11.452.325.3.487.682.487 1.145v20.764c0 .463-.162.857-.486 1.18-.324.325-.695.487-1.111.487h-3.334c-.416 0-.787-.162-1.11-.486a1.607 1.607 0 0 1-.487-1.18v-20.765zm17.5-10.902c0-.463.162-.857.486-1.18.324-.325.695-.487 1.111-.487h3.334c.416 0 .787.162 1.11.486.325.324.487.718.487 1.18v31.667c0 .463-.162.857-.486 1.18-.324.325-.695.487-1.111.487h-3.334c-.416 0-.787-.162-1.11-.486a1.607 1.607 0 0 1-.487-1.18v-31.667zm17.5-15.348c0-.463.162-.844.486-1.145.324-.301.695-.452 1.111-.452h3.334c.416 0 .787.15 1.11.452.325.3.487.682.487 1.145v47.014c0 .463-.162.857-.486 1.18-.324.325-.695.487-1.111.487h-3.334c-.416 0-.787-.162-1.11-.486a1.607 1.607 0 0 1-.487-1.18v-47.015zm17.5-19.652c0-.463.162-.857.486-1.18.324-.325.695-.487 1.111-.487h3.334c.416 0 .787.162 1.11.486.325.324.487.718.487 1.18v66.667c0 .463-.162.857-.486 1.18-.324.325-.695.487-1.111.487h-3.334c-.416 0-.787-.162-1.11-.486a1.607 1.607 0 0 1-.487-1.18v-66.667zM304.93 482.583c.464 0 .845.162 1.146.486.301.325.452.718.452 1.181v4.375c0 .463-.15.856-.452 1.18-.3.325-.682.487-1.145.487h-7.64v7.639c0 .463-.161.844-.485 1.145-.325.301-.718.452-1.181.452h-4.375c-.463 0-.856-.15-1.18-.452a1.496 1.496 0 0 1-.487-1.145v-7.64h-7.639c-.463 0-.856-.161-1.18-.485a1.607 1.607 0 0 1-.486-1.181v-4.375c0-.463.162-.856.486-1.18a1.607 1.607 0 0 1 1.18-.487h7.64v-7.639c0-.463.161-.856.485-1.18a1.607 1.607 0 0 1 1.181-.486h4.375c.463 0 .856.162 1.18.486.325.324.487.717.487 1.18v7.64h7.639zm29.098 35.973c.648.601.972 1.365.972 2.291 0 .926-.324 1.713-.972 2.361l-3.89 3.82c-.601.648-1.365.972-2.29.972-.927 0-1.69-.324-2.292-.972l-13.681-13.611c-.602-.648-.903-1.436-.903-2.361v-2.223c-5.139 4.028-10.972 6.042-17.5 6.042-7.87 0-14.583-2.778-20.139-8.333-5.555-5.556-8.333-12.257-8.333-20.104 0-7.848 2.778-14.55 8.333-20.105 5.556-5.555 12.257-8.333 20.104-8.333 7.848 0 14.55 2.778 20.105 8.333 5.555 5.556 8.333 12.269 8.333 20.14 0 6.527-2.014 12.36-6.042 17.5h2.223c.925 0 1.713.3 2.36.902l13.612 13.68zm-40.59-13.542c5.162 0 9.548-1.806 13.16-5.417 3.61-3.61 5.416-7.997 5.416-13.16 0-5.162-1.806-9.548-5.417-13.16-3.61-3.61-7.997-5.416-13.16-5.416-5.162 0-9.548 1.806-13.16 5.417-3.61 3.61-5.416 7.997-5.416 13.16 0 5.162 1.806 9.548 5.417 13.16 3.61 3.61 7.997 5.416 13.16 5.416zM444.306 471.403c.555.509 1.018 1.215 1.388 2.118.37.903.556 1.748.556 2.535v45.416c0 1.806-.637 3.345-1.91 4.618-1.273 1.273-2.812 1.91-4.618 1.91h-39.444c-1.806 0-3.345-.637-4.618-1.91-1.273-1.273-1.91-2.812-1.91-4.618v-56.944c0-1.806.637-3.345 1.91-4.618 1.273-1.273 2.812-1.91 4.618-1.91h27.916c.787 0 1.632.185 2.535.556.903.37 1.609.833 2.118 1.388l11.459 11.459zm-3.056 3.055L429.792 463a2.541 2.541 0 0 0-1.042-.556V475.5h13.056a2.541 2.541 0 0 0-.556-1.042zm-1.528 49.167c.602 0 1.111-.208 1.528-.625.417-.417.625-.926.625-1.528v-41.597h-14.236c-.88 0-1.644-.324-2.292-.972-.648-.648-.972-1.412-.972-2.292v-14.236h-24.097c-.602 0-1.111.208-1.528.625a2.078 2.078 0 0 0-.625 1.528v56.944c0 .602.208 1.111.625 1.528.417.417.926.625 1.528.625h39.444zm-16.875-31.806a.63.63 0 0 1 .452-.208.63.63 0 0 1 .451.208l4.028 4.028c.092.14.139.29.139.452 0 .162-.047.289-.14.382l-15.346 15.416-4.167.556c-.417.092-.764-.012-1.042-.313-.278-.3-.393-.66-.347-1.076l.625-4.097 15.347-15.348zm9.653-2.777c.417.416.625.902.625 1.458 0 .556-.208 1.042-.625 1.458l-2.222 2.223a.63.63 0 0 1-.452.208.63.63 0 0 1-.451-.208l-4.028-4.028a.798.798 0 0 1 0-.903l2.222-2.222a2.038 2.038 0 0 1 1.493-.625c.58 0 1.054.208 1.424.625l2.014 2.014zM571.736 466.75c.88 0 1.644.324 2.292.972.648.648.972 1.412.972 2.292v45.972c0 .88-.324 1.644-.972 2.292-.648.648-1.412.972-2.292.972h-1.111v-2.708c0-.463-.162-.857-.486-1.18a1.607 1.607 0 0 0-1.18-.487h-5.417c-.463 0-.857.162-1.18.486a1.607 1.607 0 0 0-.487 1.18v2.709h-43.75v-2.708c0-.463-.162-.857-.486-1.18a1.607 1.607 0 0 0-1.18-.487h-5.417c-.463 0-.857.162-1.18.486a1.607 1.607 0 0 0-.487 1.18v2.709h-1.111c-.88 0-1.644-.324-2.292-.972-.648-.648-.972-1.412-.972-2.292v-45.972c0-.88.324-1.644.972-2.292.648-.648 1.412-.972 2.292-.972h1.111v2.708c0 .463.162.857.486 1.18.324.325.718.487 1.18.487h5.417c.463 0 .857-.162 1.18-.486.325-.324.487-.718.487-1.18v-2.709h43.75v2.708c0 .463.162.857.486 1.18.324.325.718.487 1.18.487h5.417c.463 0 .857-.162 1.18-.486.325-.324.487-.718.487-1.18v-2.709h1.111zm-53.611 42.083v-5.416c0-.463-.162-.857-.486-1.18a1.607 1.607 0 0 0-1.18-.487h-5.417c-.463 0-.857.162-1.18.486a1.607 1.607 0 0 0-.487 1.18v5.417c0 .463.162.857.486 1.18.324.325.718.487 1.18.487h5.417c.463 0 .857-.162 1.18-.486.325-.324.487-.718.487-1.18zm0-13.125v-5.416c0-.463-.162-.857-.486-1.18a1.607 1.607 0 0 0-1.18-.487h-5.417c-.463 0-.857.162-1.18.486a1.607 1.607 0 0 0-.487 1.18v5.417c0 .463.162.857.486 1.18.324.325.718.487 1.18.487h5.417c.463 0 .857-.162 1.18-.486.325-.324.487-.718.487-1.18zm0-13.125v-5.416c0-.463-.162-.857-.486-1.18a1.607 1.607 0 0 0-1.18-.487h-5.417c-.463 0-.857.162-1.18.486a1.607 1.607 0 0 0-.487 1.18v5.417c0 .463.162.857.486 1.18.324.325.718.487 1.18.487h5.417c.463 0 .857-.162 1.18-.486.325-.324.487-.718.487-1.18zm52.5 26.25v-5.416c0-.463-.162-.857-.486-1.18a1.607 1.607 0 0 0-1.18-.487h-5.417c-.463 0-.857.162-1.18.486a1.607 1.607 0 0 0-.487 1.18v5.417c0 .463.162.857.486 1.18.324.325.718.487 1.18.487h5.417c.463 0 .857-.162 1.18-.486.325-.324.487-.718.487-1.18zm0-13.125v-5.416c0-.463-.162-.857-.486-1.18a1.607 1.607 0 0 0-1.18-.487h-5.417c-.463 0-.857.162-1.18.486a1.607 1.607 0 0 0-.487 1.18v5.417c0 .463.162.857.486 1.18.324.325.718.487 1.18.487h5.417c.463 0 .857-.162 1.18-.486.325-.324.487-.718.487-1.18zm0-13.125v-5.416c0-.463-.162-.857-.486-1.18a1.607 1.607 0 0 0-1.18-.487h-5.417c-.463 0-.857.162-1.18.486a1.607 1.607 0 0 0-.487 1.18v5.417c0 .463.162.857.486 1.18.324.325.718.487 1.18.487h5.417c.463 0 .857-.162 1.18-.486.325-.324.487-.718.487-1.18zM642.5 496.264v-6.528c0-.463.162-.856.486-1.18a1.607 1.607 0 0 1 1.18-.487H660v-8.61c0-.741.336-1.25 1.007-1.528.671-.278 1.262-.162 1.77.347l13.542 13.541c.325.325.487.718.487 1.181 0 .463-.162.856-.487 1.18l-13.541 13.542c-.51.51-1.1.625-1.771.347-.671-.277-1.007-.787-1.007-1.527v-8.611h-15.833c-.463 0-.857-.162-1.18-.487a1.607 1.607 0 0 1-.487-1.18zm-13.125-27.292c0-1.852.637-3.414 1.91-4.687 1.273-1.273 2.812-1.91 4.618-1.91h48.194c1.806 0 3.345.637 4.618 1.91 1.273 1.273 1.91 2.835 1.91 4.687v48.056c0 1.852-.637 3.414-1.91 4.687-1.273 1.273-2.812 1.91-4.618 1.91h-48.194c-1.806 0-3.345-.637-4.618-1.91-1.273-1.273-1.91-2.835-1.91-4.687v-48.056zm54.722 0h-48.194v48.056h48.194v-48.056zM780 459.111c4.583 0 8.97.891 13.16 2.674 4.19 1.782 7.8 4.19 10.833 7.222 3.032 3.032 5.44 6.643 7.222 10.833A33.277 33.277 0 0 1 813.89 493c0 4.583-.891 8.97-2.674 13.16-1.782 4.19-4.19 7.8-7.222 10.833-3.032 3.032-6.643 5.44-10.833 7.222A33.277 33.277 0 0 1 780 526.89c-4.583 0-8.97-.891-13.16-2.674-4.19-1.782-7.8-4.19-10.833-7.222-3.032-3.032-5.44-6.643-7.222-10.833A33.277 33.277 0 0 1 746.11 493c0-4.583.891-8.97 2.674-13.16 1.782-4.19 4.19-7.8 7.222-10.833 3.032-3.032 6.643-5.44 10.833-7.222A33.277 33.277 0 0 1 780 459.11zm-3.75 51.875l16.806-16.805c.324-.325.486-.718.486-1.181 0-.463-.162-.856-.486-1.18l-16.806-16.806c-.51-.51-1.1-.625-1.77-.347-.672.277-1.008.787-1.008 1.527v33.612c0 .74.336 1.25 1.007 1.527.671.278 1.262.162 1.771-.347zM920.972 463.417l15.347 26.25c.37.694.625 1.423.764 2.187a6.354 6.354 0 0 1 0 2.292 7.457 7.457 0 0 1-.764 2.187l-15.347 26.25a6.004 6.004 0 0 1-1.458 1.702 6.691 6.691 0 0 1-1.98 1.11 6.498 6.498 0 0 1-2.187.383h-30.694a6.315 6.315 0 0 1-3.23-.868 6.785 6.785 0 0 1-2.395-2.327l-15.347-26.25a6.744 6.744 0 0 1-.903-3.368c0-1.18.3-2.28.903-3.298l15.347-26.25a6.863 6.863 0 0 1 1.041-1.32 6.41 6.41 0 0 1 1.355-1.041 6.13 6.13 0 0 1 1.562-.625 6.849 6.849 0 0 1 1.667-.209h30.694c1.158 0 2.234.29 3.23.868a6.785 6.785 0 0 1 2.395 2.327zm-5.625 55.833L930.625 493l-15.278-26.25h-30.694L869.375 493l15.278 26.25h30.694zm-1.458-17.778c.324.324.486.718.486 1.18 0 .464-.162.857-.486 1.181l-3.056 3.056a1.607 1.607 0 0 1-1.18.486c-.463 0-.857-.162-1.18-.486L900 498.417l-8.472 8.472a1.607 1.607 0 0 1-1.18.486c-.464 0-.857-.162-1.181-.486l-3.056-3.056a1.607 1.607 0 0 1-.486-1.18c0-.463.162-.857.486-1.18l8.472-8.473-8.472-8.472a1.607 1.607 0 0 1-.486-1.18c0-.464.162-.857.486-1.181l3.056-3.056a1.607 1.607 0 0 1 1.18-.486c.463 0 .857.162 1.18.486l8.473 8.472 8.472-8.472a1.607 1.607 0 0 1 1.18-.486c.464 0 .857.162 1.181.486l3.056 3.056c.324.324.486.717.486 1.18 0 .463-.162.857-.486 1.18L905.417 493l8.472 8.472zM1048.403 499.528c0 5.185-1.262 9.953-3.785 14.305s-5.972 7.801-10.347 10.348c-4.375 2.546-9.132 3.819-14.271 3.819-5.139 0-9.896-1.273-14.27-3.82-4.376-2.546-7.825-5.995-10.348-10.347-2.523-4.352-3.785-9.12-3.785-14.305 0-7.037 2.292-13.206 6.875-18.507 4.584-5.301 10.301-8.484 17.153-9.549v-4.722h-3.82c-.462 0-.856-.162-1.18-.486a1.607 1.607 0 0 1-.486-1.18v-5.417c0-.463.162-.857.486-1.18a1.607 1.607 0 0 1 1.18-.487h16.39c.462 0 .856.162 1.18.486.324.324.486.718.486 1.18v5.417c0 .463-.162.857-.486 1.18a1.607 1.607 0 0 1-1.18.487h-3.82v4.722c5.093.787 9.63 2.824 13.611 6.111l3.75-3.75a1.607 1.607 0 0 1 1.18-.486c.464 0 .857.162 1.181.486l3.89 3.82c.323.324.485.717.485 1.18 0 .463-.162.857-.486 1.18l-4.097 4.098c3.01 4.676 4.514 9.815 4.514 15.417zm-24.028 4.93v-20.694c0-.463-.162-.857-.486-1.18a1.607 1.607 0 0 0-1.18-.487h-5.417c-.463 0-.857.162-1.18.486a1.607 1.607 0 0 0-.487 1.18v20.695c0 .463.162.857.486 1.18.324.325.718.487 1.18.487h5.417c.463 0 .857-.162 1.18-.486.325-.324.487-.718.487-1.18zM1171.111 461.889c.51-.51 1.1-.625 1.77-.347.672.277 1.008.787 1.008 1.527v19.514c0 .463-.162.857-.486 1.18-.324.325-.695.487-1.111.487h-19.584c-.74 0-1.25-.336-1.527-1.007-.278-.671-.162-1.262.347-1.77l7.43-7.431c-2.453-2.454-5.312-4.375-8.576-5.764-3.264-1.39-6.725-2.084-10.382-2.084-4.676 0-9.016 1.123-13.02 3.368-4.005 2.246-7.235 5.301-9.688 9.167-2.454 3.866-3.797 8.114-4.028 12.743-.046.417-.22.776-.52 1.077-.302.3-.684.451-1.147.451h-3.82c-.462 0-.856-.174-1.18-.52a1.725 1.725 0 0 1-.486-1.216c.324-5.88 2.026-11.285 5.104-16.215 3.079-4.931 7.153-8.82 12.223-11.667 5.069-2.847 10.59-4.27 16.562-4.27 4.583 0 8.947.867 13.09 2.603 4.144 1.736 7.766 4.179 10.868 7.327l7.153-7.153zm1.111 31.111c.463 0 .857.174 1.18.52.325.348.487.753.487 1.216-.324 5.88-2.026 11.285-5.104 16.215-3.079 4.931-7.153 8.82-12.223 11.667-5.069 2.847-10.59 4.27-16.562 4.27-4.583 0-8.947-.867-13.09-2.603-4.144-1.736-7.766-4.179-10.868-7.327l-7.153 7.153c-.51.51-1.1.625-1.77.347-.672-.277-1.008-.787-1.008-1.527v-19.514c0-.463.162-.857.486-1.18.324-.325.695-.487 1.111-.487h19.584c.74 0 1.25.336 1.527 1.007.278.671.162 1.262-.347 1.77l-7.43 7.431c2.453 2.454 5.312 4.375 8.576 5.764 3.264 1.39 6.725 2.084 10.382 2.084 4.676 0 9.016-1.123 13.02-3.369 4.005-2.245 7.235-5.3 9.688-9.166 2.454-3.866 3.797-8.114 4.028-12.743.046-.417.22-.776.52-1.077.302-.3.684-.451 1.147-.451h3.82zM60 349.111c4.583 0 8.97.891 13.16 2.674 4.19 1.782 7.8 4.19 10.833 7.222 3.032 3.032 5.44 6.643 7.222 10.833A33.277 33.277 0 0 1 93.89 383c0 4.583-.891 8.97-2.674 13.16-1.782 4.19-4.19 7.8-7.222 10.833-3.032 3.032-6.643 5.44-10.833 7.222A33.277 33.277 0 0 1 60 416.89c-4.583 0-8.97-.891-13.16-2.674-4.19-1.782-7.8-4.19-10.833-7.222-3.032-3.032-5.44-6.643-7.222-10.833A33.277 33.277 0 0 1 26.11 383c0-4.583.891-8.97 2.674-13.16 1.782-4.19 4.19-7.8 7.222-10.833 3.032-3.032 6.643-5.44 10.833-7.222A33.277 33.277 0 0 1 60 349.11zm0 61.25c4.954 0 9.525-1.227 13.715-3.68 4.19-2.454 7.512-5.776 9.966-9.966 2.453-4.19 3.68-8.761 3.68-13.715 0-3.704-.729-7.245-2.187-10.625-1.459-3.38-3.403-6.285-5.834-8.715-2.43-2.43-5.335-4.375-8.715-5.834A26.54 26.54 0 0 0 60 355.64c-3.704 0-7.245.729-10.625 2.187-3.38 1.459-6.285 3.403-8.715 5.834-2.43 2.43-4.375 5.335-5.834 8.715A26.54 26.54 0 0 0 32.64 383c0 4.954 1.227 9.525 3.68 13.715 2.454 4.19 5.776 7.512 9.966 9.966 4.19 2.453 8.761 3.68 13.715 3.68zM57.292 365.5h5.416c.463 0 .857.162 1.18.486.325.324.487.718.487 1.18V383h9.167c.74 0 1.25.336 1.527 1.007.278.671.162 1.262-.347 1.77L61.181 399.32a1.607 1.607 0 0 1-1.181.487c-.463 0-.856-.162-1.18-.487l-13.542-13.541c-.51-.51-.625-1.1-.347-1.771.277-.671.787-1.007 1.527-1.007h9.167v-15.833c0-.463.162-.857.486-1.18a1.607 1.607 0 0 1 1.18-.487zM210.625 397.236c0 1.019-.417 1.852-1.25 2.5-.278 1.065-.417 2.778-.417 5.139s.14 4.05.417 5.07c.833.694 1.25 1.55 1.25 2.569v2.222c0 .88-.324 1.644-.972 2.292-.648.648-1.412.972-2.292.972H162.5c-3.611 0-6.701-1.285-9.27-3.854-2.57-2.57-3.855-5.66-3.855-9.271v-43.75c0-3.611 1.285-6.701 3.854-9.27 2.57-2.57 5.66-3.855 9.271-3.855h44.861c.88 0 1.644.324 2.292.972.648.648.972 1.412.972 2.292v45.972zm-43.75-30.903v2.709c0 .231.081.428.243.59a.804.804 0 0 0 .59.243h28.959a.804.804 0 0 0 .59-.243.804.804 0 0 0 .243-.59v-2.709a.804.804 0 0 0-.243-.59.804.804 0 0 0-.59-.243h-28.959a.804.804 0 0 0-.59.243.804.804 0 0 0-.243.59zm0 8.75v2.709c0 .231.081.428.243.59a.804.804 0 0 0 .59.243h28.959a.804.804 0 0 0 .59-.243.804.804 0 0 0 .243-.59v-2.709a.804.804 0 0 0-.243-.59.804.804 0 0 0-.59-.243h-28.959a.804.804 0 0 0-.59.243.804.804 0 0 0-.243.59zm34.653 34.167c-.14-1.157-.209-2.616-.209-4.375 0-1.76.07-3.218.209-4.375H162.5c-1.204 0-2.234.428-3.09 1.285-.857.856-1.285 1.886-1.285 3.09s.428 2.234 1.285 3.09c.856.857 1.886 1.285 3.09 1.285h39.028zM315.347 356.75h12.014c.88 0 1.644.324 2.292.972.648.648.972 1.412.972 2.292v.278a.804.804 0 0 1-.243.59.804.804 0 0 1-.59.243h-3.542v50.347c0 1.806-.637 3.345-1.91 4.618-1.273 1.273-2.835 1.91-4.687 1.91h-39.306c-1.852 0-3.414-.637-4.687-1.91-1.273-1.273-1.91-2.812-1.91-4.618v-50.347h-3.542a.804.804 0 0 1-.59-.243.804.804 0 0 1-.243-.59v-.278c0-.88.324-1.644.972-2.292.648-.648 1.412-.972 2.292-.972h12.014l4.653-6.111c1.296-1.76 3.032-2.639 5.208-2.639h10.972c2.176 0 3.912.88 5.208 2.639l4.653 6.111zm-20.833-4.375c-.74 0-1.32.3-1.736.903l-2.64 3.472h19.723l-2.639-3.472c-.416-.602-.995-.903-1.736-.903h-10.972zm27.361 59.097v-50.347h-43.75v50.347c0 .556.22 1.053.66 1.493.44.44.96.66 1.562.66h39.306c.602 0 1.122-.22 1.562-.66.44-.44.66-.937.66-1.493zm-22.43-4.444c-.464 0-.845-.15-1.146-.452-.301-.3-.452-.682-.452-1.145v-36.112c0-.463.15-.844.452-1.145.3-.301.682-.452 1.145-.452h1.112c.463 0 .844.15 1.145.452.301.3.452.682.452 1.145v36.112c0 .463-.15.844-.452 1.145-.3.301-.682.452-1.145.452h-1.112zm-10.903 0c-.463 0-.857-.15-1.18-.452a1.496 1.496 0 0 1-.487-1.145v-36.112c0-.463.162-.844.486-1.145.324-.301.718-.452 1.18-.452h1.042c.463 0 .857.15 1.18.452.325.3.487.682.487 1.145v36.112c0 .463-.162.844-.486 1.145-.324.301-.718.452-1.18.452h-1.042zm21.875 0c-.463 0-.857-.15-1.18-.452a1.496 1.496 0 0 1-.487-1.145v-36.112c0-.463.162-.844.486-1.145.324-.301.718-.452 1.18-.452h1.042c.463 0 .857.15 1.18.452.325.3.487.682.487 1.145v36.112c0 .463-.162.844-.486 1.145-.324.301-.718.452-1.18.452h-1.042zM425.208 361.264c19.862 1.25 29.792 9.954 29.792 26.111 0 17.5-11.667 26.25-35 26.25s-35-8.75-35-26.25c0-16.389 10.231-25.093 30.694-26.111.232-1.667.95-3.299 2.153-4.896 1.204-1.597 2.824-2.812 4.861-3.646 1.111-.463 2.223-.463 3.334 0 1.11.463 1.898 1.25 2.36 2.361.464 1.111.464 2.223 0 3.334-.462 1.11-1.25 1.898-2.36 2.36a3.59 3.59 0 0 0-.834.487zm-1.805 24.444c-.185.37-.174.741.034 1.111.209.37.521.556.938.556H437.5c.417 0 .73-.185.938-.556.208-.37.196-.74-.035-1.11l-6.528-10.903c-.231-.37-.556-.556-.972-.556-.417 0-.718.185-.903.556l-6.597 10.902zm-21.875 0c-.185.37-.174.741.034 1.111.209.37.521.556.938.556h13.125c.417 0 .73-.185.938-.556.208-.37.196-.74-.035-1.11L410 374.805a1.112 1.112 0 0 0-.59-.487.991.991 0 0 0-.73 0 1.128 1.128 0 0 0-.555.487l-6.597 10.902zm42.5 8.542c.139-.417.046-.787-.278-1.111-.324-.324-.694-.394-1.111-.208-5.926 2.13-13.472 3.194-22.639 3.194v3.542a.804.804 0 0 1-.243.59c-.162.162-.336.243-.52.243h-2.779a.804.804 0 0 1-.59-.243.804.804 0 0 1-.243-.59v-3.611c-7.361-.37-13.426-1.412-18.194-3.125-.417-.186-.787-.116-1.112.208-.324.324-.44.694-.347 1.111 1.158 4.028 4.12 7.222 8.89 9.583.647.278 1.319.579 2.013.903v-3.403c0-.231.081-.428.243-.59a.804.804 0 0 1 .59-.243h2.709c.231 0 .428.081.59.243a.804.804 0 0 1 .243.59v4.723c2.824.648 5.74.972 8.75.972 2.963 0 5.88-.324 8.75-.972v-4.723c0-.231.081-.428.243-.59a.804.804 0 0 1 .59-.243h2.709c.231 0 .428.081.59.243a.804.804 0 0 1 .243.59v3.403c.74-.278 1.435-.579 2.083-.903 4.723-2.407 7.662-5.601 8.82-9.583zM534.41 407.514l.972-14.236c0-.417.162-.776.486-1.077.324-.3.694-.451 1.111-.451h6.18c.417 0 .788.15 1.112.451.324.301.51.66.555 1.077l.973 14.236c0 .463-.162.868-.486 1.215-.325.347-.718.521-1.181.521h-8.125c-.463 0-.857-.174-1.18-.52a1.491 1.491 0 0 1-.417-1.216zm1.458-21.597l.694-10.417c.047-.139.105-.29.174-.451.07-.162.162-.301.278-.417a1.314 1.314 0 0 1 .937-.382h4.236c.37 0 .683.127.938.382.255.255.405.544.451.868l.695 10.417c.046.37-.07.706-.347 1.007-.278.3-.625.451-1.042.451h-5.625c-.417 0-.752-.15-1.007-.451a1.52 1.52 0 0 1-.382-1.007zm1.111-16.111l.417-5.487a1 1 0 0 1 .312-.729c.209-.208.475-.312.799-.312h3.194c.186 0 .36.046.521.139.162.092.301.22.417.382a.88.88 0 0 1 .173.52l.348 5.487a.98.98 0 0 1-.243.833 1.026 1.026 0 0 1-.799.347h-4.028c-.324 0-.59-.116-.798-.347a1.203 1.203 0 0 1-.313-.833zm.695-9.584l.208-2.708c0-.51.255-.764.764-.764h2.847c.51 0 .787.255.833.764l.209 2.708c0 .185-.035.347-.104.486a.681.681 0 0 1-.313.313.925.925 0 0 1-.417.104h-3.194c-.278 0-.498-.081-.66-.243-.162-.162-.22-.382-.173-.66zm-36.875 46.806l20.208-49.792c.139-.324.393-.486.764-.486h3.82c.277 0 .497.104.659.313.162.208.22.45.174.729L512.744 408c-.186.833-.695 1.25-1.529 1.25h-8.889c-.601 0-1.064-.243-1.389-.73-.324-.485-.37-.983-.138-1.492zm66.597.972l-13.611-50.208a.897.897 0 0 1 .173-.73c.162-.208.36-.312.59-.312h3.89c.37 0 .624.162.763.486l20.209 49.722c.092.278.115.556.07.834-.047.277-.128.52-.244.729a1.35 1.35 0 0 1-.555.52c-.255.14-.521.209-.8.209h-8.888c-.833 0-1.366-.417-1.597-1.25zM689.167 403.139a9.663 9.663 0 0 1 1.284 3.368c.209 1.18.22 2.303.035 3.368a9.73 9.73 0 0 1-1.111 3.09 10.3 10.3 0 0 1-2.049 2.604c-.81.741-1.77 1.331-2.882 1.771a9.534 9.534 0 0 1-3.541.66h-41.806c-1.852 0-3.541-.475-5.07-1.424-1.527-.949-2.684-2.14-3.471-3.576-.787-1.435-1.181-3.044-1.181-4.826 0-1.783.486-3.461 1.458-5.035l16.042-25.764V356.75h-1.111c-.88 0-1.644-.324-2.292-.972-.648-.648-.972-1.412-.972-2.292v-2.222c0-.88.324-1.644.972-2.292.648-.648 1.412-.972 2.292-.972h28.472c.88 0 1.644.324 2.292.972.648.648.972 1.412.972 2.292v2.222c0 .88-.324 1.644-.972 2.292-.648.648-1.412.972-2.292.972h-1.111v20.625l16.042 25.764zm-40.973-11.389h23.542l-6.597-10.625a4.31 4.31 0 0 1-.764-2.5V356.75h-8.75v21.875c0 .926-.278 1.76-.833 2.5l-6.598 10.625zM795.347 395.917c0-.278.093-.533.278-.764l4.375-4.375c.37-.37.775-.452 1.215-.243.44.208.66.544.66 1.007v19.93c0 1.806-.637 3.345-1.91 4.618-1.273 1.273-2.812 1.91-4.618 1.91h-48.194c-1.806 0-3.345-.637-4.618-1.91-1.273-1.273-1.91-2.812-1.91-4.618v-48.194c0-1.806.637-3.345 1.91-4.618 1.273-1.273 2.812-1.91 4.618-1.91h37.43c.51 0 .857.231 1.042.694.185.463.093.857-.278 1.181L780.972 363c-.185.185-.44.278-.764.278h-33.055v48.194h48.194v-15.555zm21.667-39.653c1.574 1.574 2.361 3.46 2.361 5.66 0 2.199-.787 4.085-2.361 5.66l-35.903 35.902-12.361 1.389c-1.76.185-3.287-.359-4.583-1.632-1.297-1.273-1.829-2.812-1.598-4.618l1.32-12.361 35.903-35.903c1.574-1.574 3.46-2.361 5.66-2.361 2.198 0 4.085.787 5.66 2.361l5.902 5.903zm-38.889 40.903l25.417-25.348-7.986-7.986-25.348 25.417-1.041 8.958 8.958-1.041zm34.236-34.236c.278-.278.417-.614.417-1.007 0-.394-.14-.73-.417-1.007l-5.903-5.903a1.372 1.372 0 0 0-1.007-.417c-.393 0-.729.14-1.007.417l-4.236 4.167 7.986 7.986 4.167-4.236zM865.742 382.14c-.586 19.454 14.688 35.86 34.336 35.86 20.117 0 34.492-14.648 34.219-35.195-.234-16.993-9.336-23.75-16.406-28.907 0 0-.977-.39-.117.391 0 0 15.976 18.79 1.484 31.758 0 0-7.813 6.68-12.383.39-3.906-5.351-2.305-13.945-.078-17.968 0 0 2.539-4.375 6.406-5.625l-4.023-4.492s-4.18 2.304-6.133 5.546c0 0 .195-4.765 3.086-8.828l-6.25-7.07-6.29 7.148s3.204 4.493 3.087 8.672c0 0-2.657-3.984-6.094-5.468l-4.063 4.492s5.04 2.148 6.446 5.664c0 0 5.508 10.703.078 17.773 0 0-5.664 6.64-12.695-.351-13.711-13.633 1.171-31.172 1.992-31.954.117-.195-.117-.117-.156-.117-10.352 6.797-16.055 17.11-16.446 28.282zM1044.097 358.972h-48.194v48.056h48.194v-48.056zm1.042-6.597c1.528 0 2.824.532 3.889 1.597s1.597 2.361 1.597 3.89v49.166c0 1.852-.637 3.414-1.91 4.687-1.273 1.273-2.812 1.91-4.618 1.91h-48.194c-1.806 0-3.345-.637-4.618-1.91-1.273-1.273-1.91-2.835-1.91-4.687v-48.056c0-1.852.637-3.414 1.91-4.687 1.273-1.273 2.812-1.91 4.618-1.91h49.236zm-23.195 19.93c.37-.37.764-.37 1.181 0l7.57 7.64c.37.37.37.74 0 1.11l-18.542 18.612-7.847.833c-.51.046-.95-.116-1.32-.486-.37-.37-.532-.81-.486-1.32l.903-7.847 18.541-18.541zm14.584-1.736c.648.649.972 1.424.972 2.327s-.324 1.678-.972 2.326l-3.125 3.125c-.417.37-.81.37-1.18 0l-7.57-7.57c-.37-.416-.37-.81 0-1.18l3.125-3.125c.648-.648 1.423-.972 2.326-.972s1.678.324 2.327.972l4.097 4.097zM1141.602 387.219l10.39-19.492h-4.375l-6.133 12.187s-.937 1.875-1.718 3.594c-.743-1.797-1.641-3.594-1.641-3.594l-6.055-12.187h-4.687l10.273 19.257v12.657h3.946v-12.422zm28.398-22.97v37.501c0 6.21-5.039 11.25-11.25 11.25h-37.5c-6.21 0-11.25-5.04-11.25-11.25v-37.5c0-6.211 5.04-11.25 11.25-11.25h37.5c6.211 0 11.25 5.039 11.25 11.25zM87.43 280.778v19.583c0 .88-.324 1.644-.972 2.292-.648.648-1.412.972-2.291.972H68.264c-.463 0-.845-.162-1.146-.486a1.672 1.672 0 0 1-.451-1.18V286.68c0-.463-.162-.857-.486-1.181a1.607 1.607 0 0 0-1.181-.486h-9.861c-.463 0-.857.162-1.18.486a1.607 1.607 0 0 0-.487 1.18v15.278c0 .463-.15.857-.451 1.18-.301.325-.683.487-1.146.487H35.972c-.88 0-1.643-.324-2.291-.972-.649-.648-.973-1.412-.973-2.292v-19.583c0-.556.209-.996.625-1.32l25.695-21.11c.694-.603 1.389-.603 2.083 0l25.695 21.11c.416.37.625.81.625 1.32zm11.39-8.334c.37.278.578.637.624 1.077.047.44-.069.845-.347 1.215l-3.541 4.236c-.278.37-.637.567-1.077.59a1.814 1.814 0 0 1-1.215-.381L61.11 252.722c-.694-.555-1.389-.555-2.083 0l-32.153 26.459c-.37.277-.775.405-1.215.382-.44-.024-.799-.22-1.077-.59l-3.472-4.237c-.324-.37-.463-.775-.417-1.215.047-.44.255-.799.625-1.077l34.584-28.541a7.144 7.144 0 0 1 1.979-1.077 6.498 6.498 0 0 1 2.187-.382c.741 0 1.47.128 2.188.382a7.144 7.144 0 0 1 1.98 1.077l12.221 10.07v-9.931c0-.417.162-.787.486-1.111a1.607 1.607 0 0 1 1.181-.487h7.639c.324 0 .602.07.833.209.232.139.428.335.59.59.163.255.244.52.244.799V263l11.388 9.444zM189.722 256.958c.556.093.915.394 1.077.903.162.51.057.95-.313 1.32l-4.305 4.236 1.041 5.902c.047.51-.139.926-.555 1.25-.417.325-.88.348-1.39.07L180 267.86l-5.278 2.778c-.509.278-.972.255-1.389-.07-.416-.324-.602-.74-.555-1.25l1.041-5.902-4.305-4.236c-.37-.37-.475-.81-.313-1.32.162-.51.521-.81 1.077-.903l5.903-.833 2.638-5.347c.232-.51.625-.764 1.181-.764s.95.255 1.18.764l2.64 5.347 5.902.833zm12.153-10.208h15.278c.602 0 1.122.22 1.562.66.44.44.66.96.66 1.562v8.264c0 4.213-2.095 8.23-6.285 12.049-4.19 3.82-9.363 6.308-15.52 7.465-1.76 3.75-3.913 6.736-6.459 8.958-2.546 2.223-5.162 3.68-7.847 4.375v11.39h8.75c1.528 0 2.824.532 3.889 1.596 1.065 1.065 1.597 2.338 1.597 3.82 0 .324-.104.59-.313.798a1.081 1.081 0 0 1-.798.313H163.61c-.324 0-.59-.104-.798-.313a1.081 1.081 0 0 1-.313-.798c0-1.482.532-2.755 1.597-3.82 1.065-1.064 2.361-1.597 3.89-1.597h8.75v-11.389c-2.686-.694-5.302-2.152-7.848-4.375-2.546-2.222-4.7-5.208-6.458-8.958-6.158-1.157-11.331-3.646-15.521-7.465-4.19-3.82-6.285-7.836-6.285-12.049v-8.264c0-.602.22-1.122.66-1.562.44-.44.96-.66 1.562-.66h15.278v-6.528c0-.602.22-1.122.66-1.562.44-.44.96-.66 1.562-.66h39.306c.602 0 1.122.22 1.562.66.44.44.66.96.66 1.562v6.528zm-54.722 10.486c0 2.083 1.192 4.294 3.576 6.632 2.384 2.338 5.405 4.132 9.063 5.382-1.111-4.444-1.667-9.768-1.667-15.972h-10.972v3.958zM180 283.972c1.806 0 3.6-.66 5.382-1.979 1.782-1.32 3.414-3.171 4.896-5.555 1.481-2.385 2.697-5.498 3.646-9.34.949-3.843 1.423-8.08 1.423-12.71v-9.86h-30.694v9.86c0 4.538.463 8.716 1.389 12.536.926 3.82 2.13 6.932 3.61 9.34 1.482 2.407 3.114 4.294 4.897 5.66 1.782 1.365 3.6 2.048 5.451 2.048zm32.847-26.736v-3.958h-10.972c0 6.204-.556 11.528-1.667 15.972 3.658-1.25 6.679-3.044 9.063-5.382 2.384-2.338 3.576-4.549 3.576-6.632zM333.889 273c0 4.583-.891 8.97-2.674 13.16-1.782 4.19-4.19 7.8-7.222 10.833-3.032 3.032-6.643 5.44-10.833 7.222A33.277 33.277 0 0 1 300 306.89c-4.583 0-8.97-.891-13.16-2.674-4.19-1.782-7.8-4.19-10.833-7.222-3.032-3.032-5.44-6.643-7.222-10.833A33.277 33.277 0 0 1 266.11 273c0-4.583.891-8.97 2.674-13.16 1.782-4.19 4.19-7.8 7.222-10.833 3.032-3.032 6.643-5.44 10.833-7.222A33.277 33.277 0 0 1 300 239.11c4.583 0 8.97.891 13.16 2.674 4.19 1.782 7.8 4.19 10.833 7.222 3.032 3.032 5.44 6.643 7.222 10.833A33.277 33.277 0 0 1 333.89 273zm-24.306.486c-1.435-1.111-3.981-2.361-7.639-3.75-2.638-1.065-4.537-1.99-5.694-2.778-1.157-.787-1.736-1.782-1.736-2.986 0-1.157.486-2.106 1.458-2.847 1.111-.88 2.593-1.32 4.445-1.32.787 0 1.597.105 2.43.313.834.208 1.54.451 2.118.73.579.277 1.135.59 1.667.937.532.347.891.59 1.076.729.186.139.324.255.417.347.231.185.51.278.833.278h.209c.37-.046.648-.255.833-.625l2.361-4.236a.923.923 0 0 0 .208-.556c0-.324-.115-.613-.347-.868a9.972 9.972 0 0 0-.972-.903c-.417-.347-1.296-.845-2.639-1.493a19.092 19.092 0 0 0-4.236-1.458v-4.583c0-.463-.162-.857-.486-1.18a1.607 1.607 0 0 0-1.18-.487h-5.417c-.463 0-.857.162-1.18.486a1.607 1.607 0 0 0-.487 1.18v4.792c-2.361.695-4.306 1.806-5.833 3.334-2.13 2.13-3.195 4.63-3.195 7.5 0 1.435.266 2.766.799 3.993.532 1.227 1.123 2.21 1.77 2.951.649.74 1.61 1.493 2.883 2.257s2.291 1.32 3.055 1.667c.764.347 1.887.821 3.368 1.423 2.547 1.019 4.364 1.898 5.452 2.64 1.088.74 1.632 1.643 1.632 2.708 0 1.342-.51 2.43-1.528 3.263-1.019.834-2.361 1.25-4.028 1.25-1.481 0-3.01-.347-4.583-1.041-1.574-.695-2.64-1.262-3.195-1.702-.555-.44-.972-.798-1.25-1.076a1.137 1.137 0 0 0-.833-.347c-.417 0-.74.162-.972.486l-2.986 3.889a1.195 1.195 0 0 0-.278.764c0 .277.116.555.347.833.278.278.671.648 1.18 1.111.51.463 1.563 1.134 3.16 2.014a18.124 18.124 0 0 0 5.035 1.875v4.583c0 .463.162.857.486 1.18.324.325.718.487 1.18.487h5.417c.463 0 .857-.162 1.18-.486.325-.324.487-.718.487-1.18v-4.653c2.454-.649 4.468-1.852 6.042-3.612 2.083-2.222 3.125-4.86 3.125-7.916 0-3.241-1.32-5.88-3.959-7.917zM447.153 243.625h-54.306c-.602 0-1.122.22-1.562.66-.44.44-.66.96-.66 1.562v54.306c0 .602.22 1.122.66 1.562.44.44.96.66 1.562.66h54.306c.602 0 1.122-.22 1.562-.66.44-.44.66-.96.66-1.562v-54.306c0-.602-.22-1.122-.66-1.562-.44-.44-.96-.66-1.562-.66zm0-5.625c2.13 0 3.97.775 5.52 2.326 1.552 1.551 2.327 3.392 2.327 5.521v54.306c0 2.13-.775 3.97-2.326 5.52-1.551 1.552-3.392 2.327-5.521 2.327h-54.306c-2.13 0-3.97-.775-5.52-2.326-1.552-1.551-2.327-3.392-2.327-5.521v-54.306c0-2.13.775-3.97 2.326-5.52 1.551-1.552 3.392-2.327 5.521-2.327h54.306zm-9.167 21.736c.278 0 .533.046.764.139.231.093.394.231.486.417a.59.59 0 0 1 0 .555v21.042c0 .463-.37.856-1.111 1.18-3.102 1.436-5.81 2.153-8.125 2.153-1.296 0-3.01-.416-5.139-1.25-2.13-.833-4.028-1.25-5.694-1.25-2.732 0-6.158.857-10.278 2.57a.666.666 0 0 1-.486.208v6.944c0 .278-.023.51-.07.695v.208a3.286 3.286 0 0 1-.625 1.111 2.982 2.982 0 0 1-2.291 1.042c-.834 0-1.551-.3-2.153-.903-.602-.602-.903-1.32-.903-2.153V259.25c-1.296-.972-1.944-2.292-1.944-3.958 0-1.436.486-2.64 1.458-3.611.972-.973 2.153-1.459 3.542-1.459.926 0 1.782.22 2.57.66a4.69 4.69 0 0 1 1.84 1.84c.44.787.66 1.644.66 2.57 0 1.666-.649 2.986-1.945 3.958v2.847c.092-.092.324-.185.694-.278 3.611-1.435 6.736-2.152 9.375-2.152 2.5 0 5.579.717 9.236 2.152.556.232 1.204.348 1.945.348 1.389 0 3.078-.405 5.07-1.216 1.99-.81 3.032-1.215 3.124-1.215zM540 248.972c4.352 0 8.38 1.065 12.083 3.195 3.704 2.13 6.62 5.046 8.75 8.75 2.13 3.703 3.195 7.731 3.195 12.083s-1.065 8.38-3.195 12.083c-2.13 3.704-5.046 6.62-8.75 8.75-3.703 2.13-7.731 3.195-12.083 3.195s-8.38-1.065-12.083-3.195c-3.704-2.13-6.62-5.046-8.75-8.75-2.13-3.703-3.195-7.731-3.195-12.083s1.065-8.38 3.195-12.083c2.13-3.704 5.046-6.62 8.75-8.75 3.703-2.13 7.731-3.195 12.083-3.195zm0-3.333c-6.62 0-12.454 2.106-17.5 6.32v-10.695c0-.88.324-1.644.972-2.292.648-.648 1.412-.972 2.292-.972h28.472c.88 0 1.644.324 2.292.972.648.648.972 1.412.972 2.292v10.694c-5.046-4.213-10.88-6.32-17.5-6.32zm0 54.722c6.62 0 12.454-2.106 17.5-6.32v10.695c0 .88-.324 1.644-.972 2.292-.648.648-1.412.972-2.292.972h-28.472c-.88 0-1.644-.324-2.292-.972-.648-.648-.972-1.412-.972-2.292v-10.694c5.046 4.213 10.88 6.32 17.5 6.32zm4.93-17.5c.37.278.788.382 1.25.313.464-.07.81-.29 1.042-.66l2.57-3.542a1.55 1.55 0 0 0 .312-1.215 1.62 1.62 0 0 0-.66-1.076l-5.625-4.098v-12.708c0-.463-.162-.845-.486-1.146a1.587 1.587 0 0 0-1.11-.451h-4.445c-.417 0-.787.15-1.111.451-.324.301-.486.683-.486 1.146v15.764c0 .555.231 1.018.694 1.389l8.056 5.833zM684.097 242.375c1.806 0 3.345.637 4.618 1.91 1.273 1.273 1.91 2.835 1.91 4.687v48.056c0 1.852-.637 3.414-1.91 4.687-1.273 1.273-2.812 1.91-4.618 1.91h-48.194c-1.806 0-3.345-.637-4.618-1.91-1.273-1.273-1.91-2.835-1.91-4.687v-48.056c0-1.852.637-3.414 1.91-4.687 1.273-1.273 2.812-1.91 4.618-1.91h48.194zm0 54.653v-48.056h-48.194v48.056h48.194zm-10.208-34.861c.324.324.486.717.486 1.18 0 .463-.162.857-.486 1.18L665.417 273l8.472 8.472c.324.324.486.718.486 1.18 0 .464-.162.857-.486 1.181l-3.056 3.056a1.607 1.607 0 0 1-1.18.486c-.463 0-.857-.162-1.18-.486L660 278.417l-8.472 8.472a1.607 1.607 0 0 1-1.18.486c-.464 0-.857-.162-1.181-.486l-3.056-3.056a1.607 1.607 0 0 1-.486-1.18c0-.463.162-.857.486-1.18l8.472-8.473-8.472-8.472a1.607 1.607 0 0 1-.486-1.18c0-.464.162-.857.486-1.181l3.056-3.056a1.607 1.607 0 0 1 1.18-.486c.463 0 .857.162 1.18.486l8.473 8.472 8.472-8.472a1.607 1.607 0 0 1 1.18-.486c.464 0 .857.162 1.181.486l3.056 3.056zM830 238c-4.062 1.68-9.531 3.906-16.797 12.93-7.226 9.023-11.406 18.554-12.148 19.882 0 0-.781 1.329-3.985 6.915-2.656-8.711-12.734-8.711-12.734-8.711-10.04 0-19.258 6.914-29.61 26.64-9.101 2.149-14.492 2.149-14.492 2.149-.156 0-.234.078-.234.234 0 .04.04.078.04.117.898 1.211 4.491 4.961 13.671 4.844 10.898-.156 19.922-3.555 31.016-3.555 7.656 0 11.953.586 13.828.938a1.678 1.678 0 0 0 1.836-.86l7.578-13.476c.312-.547.117-1.211-.43-1.524-.117-.039-.234-.117-.39-.117-3.477-.469-11.758-1.328-18.165-.273-8.32 1.367-11.054 3.242-21.367 7.187 0 0-1.953.977-6.094 2.344 8.243-4.922 11.836-6.992 11.836-6.992 7.422-4.414 15.977-6.524 24.61-6.172 1.914-3.672 4.258-7.93 5.898-9.023 1.68-1.094 7.657-3.711 9.297-7.032 1.64-3.281 2.344-10.039 3.281-11.758.977-1.68 2.188-7.148 13.555-14.687zM933.68 240.639c.602 2.546.984 4.49 1.146 5.833.162 1.343.243 3.264.243 5.764 0 8.01-4.375 15.926-13.125 23.75v17.43c0 1.667-.717 2.917-2.152 3.75l-17.5 10.209c-1.482.88-2.952.891-4.41.035-1.458-.857-2.188-2.118-2.188-3.785v-11.32a114.438 114.438 0 0 1-6.11 2.57c-.649.231-1.228.093-1.737-.417l-9.236-9.236c-.51-.509-.648-1.088-.417-1.736a97.398 97.398 0 0 1 2.57-6.111h-11.32c-1.666 0-2.928-.73-3.784-2.188-.857-1.458-.845-2.928.034-4.41l10.209-17.5c.833-1.434 2.083-2.152 3.75-2.152h17.43c7.824-8.75 15.741-13.125 23.75-13.125 1.343 0 2.373.012 3.09.035.718.023 1.54.08 2.466.173.926.093 1.829.232 2.708.417.88.185 2.014.44 3.403.764.602.139.995.555 1.18 1.25zM869.445 273h13.334c3.24-6.574 6.805-12.407 10.694-17.5h-13.82L869.445 273zm30.625 30.625l17.5-10.208v-13.82c-5.046 3.89-10.88 7.454-17.5 10.695v13.333zm-10.416-13.472a122.166 122.166 0 0 0 10.416-4.757c3.473-1.783 7.095-3.947 10.869-6.493 3.773-2.547 7.083-5.162 9.93-7.847 2.847-2.686 5.197-5.683 7.049-8.993 1.852-3.31 2.777-6.586 2.777-9.827 0-3.426-.3-6.412-.902-8.958-2.547-.602-5.533-.903-8.959-.903-3.24 0-6.516.926-9.826 2.778-3.31 1.852-6.308 4.201-8.993 7.048-2.685 2.848-5.301 6.158-7.847 9.93-2.547 3.774-4.7 7.397-6.459 10.869a129.308 129.308 0 0 0-4.722 10.417l6.667 6.736zm25.729-40.14c2.106 0 3.912.753 5.417 2.258 1.504 1.504 2.257 3.31 2.257 5.417 0 2.106-.753 3.912-2.257 5.416-1.505 1.505-3.31 2.257-5.417 2.257-2.107 0-3.912-.752-5.417-2.257-1.504-1.504-2.257-3.31-2.257-5.416 0-2.107.753-3.913 2.257-5.417 1.505-1.505 3.31-2.257 5.417-2.257zm0 10.973c.903 0 1.678-.324 2.326-.972.648-.648.973-1.424.973-2.327 0-.902-.325-1.678-.973-2.326-.648-.648-1.423-.972-2.326-.972s-1.678.324-2.326.972c-.649.648-.973 1.424-.973 2.327 0 .902.324 1.678.973 2.326.648.648 1.423.972 2.326.972zM989.375 249.458v-3.82c0-.879.324-1.643.972-2.29.648-.649 1.412-.973 2.292-.973h15.347l1.25-2.57c.602-1.203 1.574-1.805 2.917-1.805h15.625c1.389 0 2.384.602 2.986 1.806l1.25 2.569h15.347c.88 0 1.644.324 2.292.972.648.648.972 1.412.972 2.292v3.82c0 .462-.162.856-.486 1.18a1.607 1.607 0 0 1-1.18.486h-57.917c-.463 0-.857-.162-1.18-.486a1.607 1.607 0 0 1-.487-1.18zm55.139 6.042c.463 0 .856.174 1.18.52.325.348.463.753.417 1.216l-2.778 44.583a6.262 6.262 0 0 1-.972 3.16c-.602.95-1.4 1.69-2.396 2.222a6.604 6.604 0 0 1-3.16.799h-33.61c-1.714 0-3.207-.59-4.48-1.77-1.273-1.181-1.956-2.651-2.048-4.41l-2.778-44.584a1.204 1.204 0 0 1 .243-1.042c.116-.138.243-.254.382-.347a2.8 2.8 0 0 1 .451-.243c.162-.07.336-.104.521-.104h49.028zM1131.18 306.75a4.426 4.426 0 0 1-1.874-.417l-8.612-4.166a3.89 3.89 0 0 1-2.013-2.014 4.034 4.034 0 0 1-.209-2.847 126.76 126.76 0 0 1 1.945-6.459 23.3 23.3 0 0 1-2.153-2.639c-2.5.232-4.722.394-6.667.486-1.018 0-1.933-.3-2.743-.902a4.018 4.018 0 0 1-1.562-2.361l-2.084-9.375c-.231-.973-.127-1.922.313-2.848.44-.926 1.123-1.574 2.048-1.944 1.806-.787 3.89-1.62 6.25-2.5a28.82 28.82 0 0 1 .764-3.333c-1.759-1.806-3.264-3.45-4.514-4.931-.694-.787-1.041-1.678-1.041-2.674 0-.995.3-1.91.903-2.743l5.972-7.5a4.23 4.23 0 0 1 2.465-1.493 3.857 3.857 0 0 1 2.813.452c1.759.88 3.703 1.99 5.833 3.333a38.98 38.98 0 0 1 3.125-1.528c.278-2.5.602-4.699.972-6.597a4.085 4.085 0 0 1 1.458-2.5 4.14 4.14 0 0 1 2.709-.972h9.583a4.14 4.14 0 0 1 2.708.972 4.085 4.085 0 0 1 1.459 2.5c.37 1.944.694 4.144.972 6.597a38.98 38.98 0 0 1 3.125 1.528c2.13-1.343 4.074-2.454 5.833-3.333.88-.51 1.817-.66 2.813-.452a4.23 4.23 0 0 1 2.465 1.493l5.972 7.5c.602.834.903 1.748.903 2.743 0 .996-.347 1.887-1.042 2.674-1.25 1.481-2.754 3.125-4.513 4.93.324 1.112.578 2.223.763 3.334a125.04 125.04 0 0 1 6.25 2.5c.926.37 1.61 1.018 2.05 1.944.439.926.543 1.875.312 2.848l-2.084 9.375c-.231.972-.752 1.77-1.562 2.395a4.058 4.058 0 0 1-2.743.868 151.199 151.199 0 0 1-6.667-.486 23.3 23.3 0 0 1-2.153 2.64 126.77 126.77 0 0 1 1.945 6.458 4.034 4.034 0 0 1-.209 2.847 3.89 3.89 0 0 1-2.014 2.014l-8.61 4.166a4.02 4.02 0 0 1-2.883.313 4.134 4.134 0 0 1-2.395-1.632 109.074 109.074 0 0 1-3.75-5.486 43.42 43.42 0 0 1-3.473 0 141.505 141.505 0 0 1-3.75 5.555c-.88 1.111-2.014 1.667-3.402 1.667zm-8.472-8.472l8.403 4.097c1.296-1.806 2.963-4.306 5-7.5 1.806.231 3.125.347 3.958.347.834 0 2.153-.116 3.959-.347 2.037 3.194 3.703 5.694 5 7.5l8.403-4.097c-.556-2.13-1.459-4.977-2.709-8.542 1.297-1.296 2.2-2.268 2.709-2.917.509-.648 1.25-1.736 2.222-3.263 3.75.416 6.736.67 8.958.763l2.083-9.097c-2.037-.88-4.837-1.944-8.402-3.194-.14-1.297-.267-2.28-.382-2.952a18.867 18.867 0 0 0-.452-1.979 74.751 74.751 0 0 0-.902-2.847c2.638-2.685 4.675-4.861 6.11-6.528l-5.833-7.291c-1.898 1.018-4.467 2.546-7.708 4.583-1.528-.972-2.662-1.644-3.403-2.014-.74-.37-1.99-.856-3.75-1.458-.416-3.75-.833-6.713-1.25-8.89h-9.305c-.417 2.177-.834 5.14-1.25 8.89-1.76.602-3.01 1.088-3.75 1.458-.741.37-1.875 1.042-3.403 2.014-3.195-1.99-5.764-3.519-7.708-4.583l-5.834 7.291c1.435 1.667 3.472 3.843 6.111 6.528-.602 1.713-.995 2.975-1.18 3.785-.185.81-.37 2.14-.556 3.993-3.565 1.25-6.366 2.315-8.403 3.194l2.084 9.097c2.222-.092 5.208-.347 8.958-.763.51.833.914 1.47 1.215 1.91.301.44.637.902 1.007 1.388.37.486.741.915 1.111 1.285l1.598 1.597c-1.25 3.565-2.153 6.412-2.709 8.542zm17.361-12.778c-3.426 0-6.365-1.227-8.819-3.68-2.454-2.454-3.68-5.394-3.68-8.82s1.226-6.366 3.68-8.82c2.454-2.453 5.393-3.68 8.82-3.68 3.425 0 6.365 1.227 8.819 3.68 2.454 2.454 3.68 5.394 3.68 8.82s-1.226 6.366-3.68 8.82c-2.454 2.453-5.394 3.68-8.82 3.68zm0-20.625c-2.222 0-4.131.799-5.729 2.396-1.597 1.597-2.396 3.507-2.396 5.729s.8 4.132 2.396 5.73c1.598 1.596 3.507 2.395 5.73 2.395 2.222 0 4.131-.799 5.729-2.396 1.597-1.597 2.395-3.507 2.395-5.729s-.798-4.132-2.395-5.73c-1.598-1.596-3.507-2.395-5.73-2.395zM57.5 197.514c-3.01-1.25-5.937-2.963-8.785-5.139-2.847-2.176-5.578-4.861-8.194-8.056-2.616-3.194-4.908-6.7-6.875-10.52-1.968-3.82-3.53-8.183-4.688-13.09-1.157-4.908-1.736-9.977-1.736-15.209 0-1.343.359-2.558 1.077-3.646.717-1.088 1.701-1.886 2.951-2.396l26.25-10.972A6.501 6.501 0 0 1 60 128c.88 0 1.713.162 2.5.486l26.25 10.972c1.25.51 2.234 1.308 2.951 2.396.718 1.088 1.077 2.303 1.077 3.646 0 5.787-.672 11.296-2.014 16.528-1.343 5.231-3.079 9.722-5.208 13.472-2.13 3.75-4.572 7.164-7.327 10.243-2.754 3.079-5.428 5.544-8.02 7.396-2.593 1.852-5.163 3.31-7.709 4.375-1.667.694-3.333.694-5 0zm2.5-62.986L33.75 145.5c0 5.602.74 10.972 2.222 16.111 1.482 5.139 3.46 9.641 5.938 13.507 2.477 3.866 5.266 7.2 8.368 10 3.102 2.801 6.342 4.919 9.722 6.354 3.287-1.389 6.458-3.449 9.514-6.18 3.055-2.732 5.845-6.007 8.368-9.827 2.523-3.82 4.549-8.345 6.076-13.576 1.528-5.232 2.292-10.695 2.292-16.389L60 134.528zm-.903 45.278l-14.791-9.653c-.37-.232-.602-.579-.695-1.042-.092-.463-.023-.88.208-1.25l2.431-3.611c.231-.417.567-.671 1.007-.764.44-.092.868 0 1.285.278l9.652 6.32 14.931-22.778c.278-.37.637-.602 1.076-.695.44-.092.845-.023 1.216.208l3.68 2.431c.37.231.602.567.695 1.007.092.44.023.868-.209 1.285L61.32 179.319c-.231.37-.567.602-1.007.695-.44.092-.844.023-1.215-.208zM204.097 158.625c1.806 0 3.345.637 4.618 1.91 1.273 1.273 1.91 2.835 1.91 4.687v26.25c0 1.806-.637 3.345-1.91 4.618-1.273 1.273-2.812 1.91-4.618 1.91h-48.194c-1.806 0-3.345-.637-4.618-1.91-1.273-1.273-1.91-2.812-1.91-4.618v-26.25c0-1.852.637-3.414 1.91-4.687 1.273-1.273 2.812-1.91 4.618-1.91h3.333v-9.861c0-5.695 2.026-10.579 6.077-14.653 4.05-4.074 8.946-6.111 14.687-6.111 5.74 0 10.637 2.037 14.688 6.111 4.05 4.074 6.076 8.958 6.076 14.653v9.861h3.333zm-18.61 22.986v-6.597c0-1.482-.533-2.766-1.598-3.854s-2.361-1.632-3.889-1.632c-1.528 0-2.824.544-3.889 1.632-1.065 1.088-1.597 2.372-1.597 3.854v6.597c0 1.482.532 2.755 1.597 3.82 1.065 1.064 2.361 1.597 3.889 1.597 1.528 0 2.824-.533 3.889-1.597 1.065-1.065 1.597-2.338 1.597-3.82zm4.374-22.986v-9.861c0-2.685-.96-4.989-2.882-6.91-1.921-1.921-4.248-2.882-6.979-2.882s-5.058.96-6.98 2.882c-1.92 1.921-2.881 4.225-2.881 6.91v9.861h19.722zM324.514 144.389h-41.528c-5.139 0-9.525 1.817-13.16 5.451-3.634 3.635-5.451 8.021-5.451 13.16 0 5.139 1.817 9.525 5.451 13.16 3.635 3.634 8.021 5.451 13.16 5.451 1.713 0 3.299-.162 4.757-.486 1.458-.324 2.743-.822 3.854-1.493 1.111-.671 1.956-1.238 2.535-1.701a55.323 55.323 0 0 0 2.118-1.806h15c1.481 1.389 3.414 2.65 5.799 3.785 2.384 1.134 4.872 1.701 7.465 1.701 5.139 0 9.525-1.817 13.16-5.451 3.634-3.635 5.451-8.021 5.451-13.16 0-5.139-1.817-9.525-5.451-13.16-3.635-3.634-8.021-5.451-13.16-5.451zm0-4.375c4.167 0 8.01 1.03 11.528 3.09a23.022 23.022 0 0 1 8.368 8.368c2.06 3.519 3.09 7.361 3.09 11.528 0 4.167-1.03 8.01-3.09 11.528a23.022 23.022 0 0 1-8.368 8.368c-3.519 2.06-7.361 3.09-11.528 3.09-5.602 0-10.556-1.829-14.861-5.486h-11.806c-4.305 3.657-9.259 5.486-14.86 5.486-4.168 0-8.01-1.03-11.529-3.09a23.022 23.022 0 0 1-8.368-8.368c-2.06-3.519-3.09-7.361-3.09-11.528 0-4.167 1.03-8.01 3.09-11.528a23.022 23.022 0 0 1 8.368-8.368c3.519-2.06 7.361-3.09 11.528-3.09h41.528zm5.486 13.68c1.343 0 2.5.487 3.472 1.459.972.972 1.459 2.13 1.459 3.472 0 1.343-.487 2.5-1.459 3.472-.972.972-2.13 1.459-3.472 1.459-1.343 0-2.5-.487-3.472-1.459-.972-.972-1.459-2.13-1.459-3.472 0-1.343.487-2.5 1.459-3.472.972-.972 2.13-1.459 3.472-1.459zm-8.75 8.75c1.343 0 2.5.487 3.472 1.459.972.972 1.459 2.13 1.459 3.472 0 1.343-.487 2.5-1.459 3.472-.972.972-2.13 1.459-3.472 1.459-1.343 0-2.5-.487-3.472-1.459-.972-.972-1.459-2.13-1.459-3.472 0-1.343.487-2.5 1.459-3.472.972-.972 2.13-1.459 3.472-1.459zm-36.667-2.152h6.32c.231 0 .428.08.59.243.162.162.243.335.243.52v3.89c0 .185-.08.358-.243.52a.804.804 0 0 1-.59.243h-6.32v6.32a.804.804 0 0 1-.243.59c-.162.162-.335.243-.52.243h-3.89c-.185 0-.358-.08-.52-.243a.804.804 0 0 1-.243-.59v-6.32h-6.32a.804.804 0 0 1-.59-.243c-.162-.162-.243-.335-.243-.52v-3.89c0-.185.08-.358.243-.52a.804.804 0 0 1 .59-.243h6.32v-6.32c0-.231.08-.428.243-.59.162-.162.335-.243.52-.243h3.89c.185 0 .358.08.52.243a.804.804 0 0 1 .243.59v6.32zM445.208 140.083l-7.083 7.153 3.611 3.611c.648.648.972 1.424.972 2.327 0 .902-.324 1.678-.972 2.326l-2.361 2.361a28.115 28.115 0 0 1 2.5 11.667c0 5.185-1.273 9.953-3.82 14.305-2.546 4.352-5.995 7.801-10.347 10.348-4.352 2.546-9.108 3.819-14.27 3.819-5.163 0-9.92-1.273-14.271-3.82-4.352-2.546-7.801-5.995-10.348-10.347-2.546-4.352-3.819-9.12-3.819-14.305 0-7.824 2.778-14.514 8.333-20.07 5.556-5.555 12.269-8.333 20.14-8.333 4.073 0 7.962.833 11.666 2.5l2.361-2.361c.648-.648 1.424-.972 2.326-.972.903 0 1.679.324 2.327.972l3.61 3.611 7.154-7.083 2.291 2.291zm8.125-3.889c.463 0 .857.162 1.18.487.325.324.487.706.487 1.145 0 .44-.162.822-.486 1.146a1.607 1.607 0 0 1-1.18.486h-3.265c-.463 0-.844-.162-1.145-.486a1.629 1.629 0 0 1-.452-1.146c0-.44.15-.821.452-1.145.3-.325.682-.487 1.145-.487h3.264zm-8.16-8.194c.44 0 .822.162 1.146.486.325.324.487.718.487 1.18v3.265c0 .463-.162.844-.487 1.145-.324.301-.706.452-1.145.452-.44 0-.822-.15-1.146-.452a1.496 1.496 0 0 1-.486-1.145v-3.264c0-.463.162-.857.486-1.18a1.567 1.567 0 0 1 1.146-.487zm4.619 7.5a1.567 1.567 0 0 1-1.146.486c-.44 0-.822-.162-1.146-.486a1.567 1.567 0 0 1-.486-1.146c0-.44.162-.822.486-1.146l2.292-2.36a1.607 1.607 0 0 1 1.18-.487c.463 0 .845.162 1.146.486.301.324.451.718.451 1.18 0 .464-.162.857-.486 1.181l-2.291 2.292zm-9.236 0l-2.362-2.292a1.607 1.607 0 0 1-.486-1.18c0-.463.162-.857.486-1.18a1.607 1.607 0 0 1 1.181-.487c.463 0 .856.162 1.18.486l2.292 2.361c.324.324.486.706.486 1.146 0 .44-.162.822-.486 1.146a1.607 1.607 0 0 1-1.18.486c-.463 0-.834-.162-1.111-.486zm9.236 4.653l2.291 2.36c.324.325.486.707.486 1.147 0 .44-.15.821-.45 1.146-.302.324-.684.486-1.147.486-.463 0-.856-.162-1.18-.486l-2.292-2.292a1.607 1.607 0 0 1-.486-1.18c0-.464.15-.857.451-1.181.301-.324.683-.486 1.146-.486.463 0 .857.162 1.18.486zm-49.514 25.07c0-2.454.856-4.526 2.57-6.216 1.712-1.69 3.772-2.535 6.18-2.535.602 0 1.122-.22 1.562-.66.44-.44.66-.96.66-1.562 0-.602-.22-1.123-.66-1.563-.44-.44-.96-.66-1.562-.66-3.611 0-6.69 1.285-9.236 3.855-2.547 2.57-3.82 5.683-3.82 9.34 0 .556.209 1.053.625 1.493.417.44.926.66 1.528.66s1.111-.22 1.528-.66c.416-.44.625-.937.625-1.493zM568.542 128.556c1.574-.88 3.113-.81 4.618.208 1.504 1.018 2.118 2.454 1.84 4.305l-8.75 57.014c-.185 1.39-.903 2.43-2.153 3.125-1.25.695-2.523.764-3.82.209l-17.29-7.084-8.265 10.07c-.833 1.018-1.875 1.562-3.125 1.632-1.25.07-2.338-.313-3.264-1.146-.926-.833-1.389-1.921-1.389-3.264v-13.958l-19.166-7.917c-1.667-.694-2.558-1.944-2.674-3.75-.116-1.806.614-3.171 2.188-4.097l61.25-35.347zm-37.223 65.069l7.431-9.097-7.43-3.056v12.153zm30.625-4.236l8.75-57.014-61.25 35.347 15.487 6.39 34.93-29.723c.37-.324.74-.313 1.111.035.37.347.394.706.07 1.076l-27.292 32.222 28.194 11.667zM687.222 174.25c1.019 2.222 1.308 4.572.868 7.049-.44 2.476-1.55 4.618-3.333 6.423-1.782 1.806-3.924 2.928-6.424 3.368-2.5.44-4.86.15-7.083-.868-.833 2.315-2.28 4.19-4.34 5.625-2.06 1.435-4.364 2.153-6.91 2.153-2.546 0-4.85-.718-6.91-2.153-2.06-1.435-3.507-3.31-4.34-5.625-2.222 1.019-4.583 1.308-7.083.868-2.5-.44-4.642-1.562-6.424-3.368-1.782-1.805-2.893-3.947-3.333-6.423-.44-2.477-.15-4.827.868-7.049-2.315-.833-4.19-2.28-5.625-4.34-1.435-2.06-2.153-4.364-2.153-6.91 0-2.546.718-4.85 2.153-6.91 1.435-2.06 3.31-3.507 5.625-4.34-1.019-2.222-1.308-4.583-.868-7.083.44-2.5 1.562-4.642 3.368-6.424 1.805-1.782 3.947-2.893 6.423-3.333 2.477-.44 4.827-.15 7.049.868.833-2.315 2.28-4.19 4.34-5.625 2.06-1.435 4.364-2.153 6.91-2.153 2.546 0 4.85.718 6.91 2.153 2.06 1.435 3.507 3.31 4.34 5.625 2.222-1.019 4.572-1.308 7.049-.868 2.476.44 4.618 1.562 6.423 3.368 1.806 1.805 2.928 3.947 3.368 6.423.44 2.477.15 4.827-.868 7.049a12.21 12.21 0 0 1 3.125 1.736c.972.74 1.794 1.597 2.466 2.57.67.972 1.203 2.06 1.597 3.263.393 1.204.59 2.431.59 3.681 0 2.546-.718 4.85-2.153 6.91-1.435 2.06-3.31 3.507-5.625 4.34zm-26.041 5.764l17.291-26.389a2.898 2.898 0 0 0 .452-2.257c-.162-.81-.59-1.424-1.285-1.84l-4.097-2.709a2.79 2.79 0 0 0-2.257-.416c-.81.185-1.424.602-1.84 1.25l-12.987 19.791-8.194-5.277c-.648-.463-1.377-.614-2.188-.452-.81.162-1.423.59-1.84 1.285l-2.708 4.097c-.463.695-.614 1.435-.452 2.222.162.787.59 1.412 1.285 1.875l14.722 9.653a2.79 2.79 0 0 0 2.257.417c.81-.185 1.424-.602 1.84-1.25zM790 186.594c-.39-2.266-1.875-10.078-5.469-19.453-.039 0-.117.039-.156.039 0 0-15.195 5.312-20.117 16.015-.235-.195-.586-.43-.586-.43 4.453 3.633 10.117 5.86 16.328 5.86 3.555 0 6.914-.742 10-2.031zm-7.227-23.711a72.786 72.786 0 0 0-2.07-4.336c-13.203 3.945-25.86 3.633-26.289 3.633-.039.273-.039.547-.039.82 0 6.562 2.5 12.578 6.563 17.11 6.992-12.462 20.82-16.915 20.82-16.915.351-.117.703-.195 1.015-.312zm-4.18-8.281c-4.452-7.891-9.179-14.297-9.53-14.766-7.149 3.36-12.461 9.96-14.141 17.89.664 0 11.367.118 23.672-3.124zm26.72 12.46c-.547-.156-7.696-2.421-15.977-1.132 3.36 9.257 4.727 16.797 5 18.32 5.742-3.867 9.805-10.04 10.977-17.188zm-31.446-28.945c-.039 0-.039 0-.078.04 0 0 .04-.04.078-.04zm23.047 5.664A25.428 25.428 0 0 0 780 137.375c-2.07 0-4.102.273-6.055.742.391.508 5.235 6.875 9.61 14.922 9.648-3.594 13.281-9.14 13.36-9.258zm8.711 18.946c-.078-6.055-2.226-11.641-5.82-16.016-.078.078-4.18 6.016-14.297 10.156.586 1.211 1.172 2.461 1.719 3.711.195.43.351.899.546 1.328 8.829-1.133 17.54.781 17.852.82zM810 163c0 16.562-13.437 30-30 30-16.562 0-30-13.438-30-30 0-16.563 13.438-30 30-30 16.563 0 30 13.437 30 30zM939.444 160.813c0 5.162-1.759 9.93-5.277 14.305-3.519 4.375-8.299 7.824-14.34 10.347-6.042 2.523-12.628 3.785-19.758 3.785-6.481 0-12.592-1.088-18.333-3.264-5.555 4.306-12.037 6.852-19.444 7.639a1.405 1.405 0 0 1-1.007-.243 1.435 1.435 0 0 1-.59-.799c-.093-.416.208-.972.902-1.666.047 0 .486-.382 1.32-1.146.833-.764 1.33-1.25 1.493-1.458l1.215-1.563c.648-.833 1.1-1.586 1.354-2.257a42.73 42.73 0 0 0 .903-2.743c.347-1.157.637-2.407.868-3.75-5.37-5.046-8.056-10.787-8.056-17.222 0-5.14 1.76-9.884 5.278-14.236 3.519-4.352 8.299-7.801 14.34-10.348 6.042-2.546 12.628-3.819 19.757-3.819 7.13 0 13.716 1.273 19.757 3.82 6.042 2.546 10.822 5.995 14.34 10.347 3.52 4.352 5.278 9.108 5.278 14.27zm-56.875-6.563c-1.805 0-3.356.637-4.652 1.91-1.297 1.273-1.945 2.824-1.945 4.653 0 1.828.648 3.38 1.945 4.652 1.296 1.273 2.847 1.91 4.652 1.91 1.806 0 3.357-.637 4.653-1.91 1.297-1.273 1.945-2.824 1.945-4.653 0-1.828-.648-3.38-1.945-4.652-1.296-1.273-2.847-1.91-4.653-1.91zm17.5 0c-1.805 0-3.356.637-4.652 1.91-1.297 1.273-1.945 2.824-1.945 4.653 0 1.828.648 3.38 1.945 4.652 1.296 1.273 2.847 1.91 4.652 1.91 1.806 0 3.357-.637 4.653-1.91 1.297-1.273 1.945-2.824 1.945-4.653 0-1.828-.648-3.38-1.945-4.652-1.296-1.273-2.847-1.91-4.653-1.91zm17.5 0c-1.805 0-3.356.637-4.652 1.91-1.297 1.273-1.945 2.824-1.945 4.653 0 1.828.648 3.38 1.945 4.652 1.296 1.273 2.847 1.91 4.652 1.91 1.806 0 3.357-.637 4.653-1.91 1.297-1.273 1.945-2.824 1.945-4.653 0-1.828-.648-3.38-1.945-4.652-1.296-1.273-2.847-1.91-4.653-1.91zM1059.375 158.625c0 .926-.185 1.806-.556 2.639a6.65 6.65 0 0 1-1.562 2.187 6.13 6.13 0 0 1-2.257 1.355V180.5c0 2.407-.856 4.468-2.57 6.18-1.712 1.714-3.773 2.57-6.18 2.57a39.494 39.494 0 0 1-1.18-1.042 369.937 369.937 0 0 0-4.34-3.645 180.666 180.666 0 0 0-4.41-3.473c-1.899-1.458-3.646-2.604-5.244-3.437a116.057 116.057 0 0 0-5.52-2.674 31.738 31.738 0 0 0-6.528-2.153 52.712 52.712 0 0 0-7.084-1.007c-2.175.741-3.657 2.165-4.444 4.271-.787 2.107-.602 4.016.556 5.73.185.277.277.578.277.902 0 .232-.046.44-.139.625-.555 1.019-.729 2.049-.52 3.09.208 1.042.567 1.957 1.076 2.744.51.787 1.227 1.62 2.153 2.5.833.833 1.146 1.828.937 2.986-.208 1.157-.868 1.967-1.979 2.43-1.76.741-3.981 1.03-6.667.868-2.685-.162-4.745-.683-6.18-1.562a3.102 3.102 0 0 1-1.32-1.736c-.138-.324-.428-1.18-.868-2.57a239.48 239.48 0 0 1-.868-2.778c-.139-.463-.382-1.33-.729-2.604-.347-1.273-.567-2.234-.66-2.882-.092-.648-.208-1.562-.347-2.743-.139-1.18-.185-2.199-.139-3.055.047-.857.15-1.852.313-2.986.162-1.135.405-2.234.729-3.299h-5.972c-1.806 0-3.345-.637-4.618-1.91-1.273-1.273-1.91-2.812-1.91-4.618v-13.194c0-1.806.637-3.345 1.91-4.618 1.273-1.273 2.812-1.91 4.618-1.91h21.944c3.982 0 7.755-.463 11.32-1.389a37.394 37.394 0 0 0 10-4.201c3.102-1.875 5.613-3.542 7.534-5 1.922-1.459 4.294-3.415 7.118-5.868.51-.463.903-.81 1.181-1.042 2.407 0 4.468.856 6.18 2.57 1.714 1.712 2.57 3.773 2.57 6.18v15.694a6.48 6.48 0 0 1 3.16 2.396 6.361 6.361 0 0 1 1.215 3.785zm-13.125 19.097v-38.194a84.428 84.428 0 0 1-6.146 4.653c-1.967 1.342-4.236 2.72-6.805 4.131-2.57 1.413-5.348 2.593-8.334 3.542-2.986.95-6.1 1.609-9.34 1.98v9.583c3.24.37 6.354 1.03 9.34 1.979 2.986.949 5.764 2.13 8.334 3.542 2.57 1.412 4.838 2.789 6.805 4.131a84.428 84.428 0 0 1 6.146 4.653zM1153.125 167.375c0 1.204-.428 2.234-1.285 3.09-.856.857-1.886 1.285-3.09 1.285s-2.234-.428-3.09-1.285c-.857-.856-1.285-1.886-1.285-3.09 0-.463.07-.903.208-1.32.37.88 1.019 1.32 1.945 1.32.602 0 1.122-.22 1.562-.66.44-.44.66-.937.66-1.493 0-.972-.44-1.643-1.32-2.014a4.594 4.594 0 0 1 1.32-.208c1.204 0 2.234.428 3.09 1.285.857.856 1.285 1.886 1.285 3.09zM1131.25 163c1.204 0 2.234.428 3.09 1.285.857.856 1.285 1.886 1.285 3.09s-.428 2.234-1.285 3.09c-.856.857-1.886 1.285-3.09 1.285s-2.234-.428-3.09-1.285c-.857-.856-1.285-1.886-1.285-3.09 0-.417.07-.856.208-1.32.37.88 1.019 1.32 1.945 1.32.602 0 1.122-.22 1.562-.66.44-.44.66-.937.66-1.493 0-.972-.44-1.643-1.32-2.014a4.145 4.145 0 0 1 1.32-.208zm0 0c1.204 0 2.234.428 3.09 1.285.857.856 1.285 1.886 1.285 3.09s-.428 2.234-1.285 3.09c-.856.857-1.886 1.285-3.09 1.285s-2.234-.428-3.09-1.285c-.857-.856-1.285-1.886-1.285-3.09 0-.417.07-.856.208-1.32.37.88 1.019 1.32 1.945 1.32.602 0 1.122-.22 1.562-.66.44-.44.66-.937.66-1.493 0-.972-.44-1.643-1.32-2.014a4.145 4.145 0 0 1 1.32-.208zm35 17.5c2.407 0 4.468.856 6.18 2.57 1.714 1.712 2.57 3.773 2.57 6.18 0 2.407-.856 4.468-2.57 6.18-1.712 1.714-3.773 2.57-6.18 2.57h-52.5c-2.269 0-4.294-.88-6.076-2.639-1.783-1.76-2.674-3.796-2.674-6.111 0-2.269.637-4.167 1.91-5.694 1.273-1.528 3.02-2.5 5.243-2.917l.833-.139a29.856 29.856 0 0 0 2.188-.451 23.29 23.29 0 0 1 1.562-.313c-1.342-.602-2.523-1.713-3.542-3.333-1.018-1.62-1.527-3.172-1.527-4.653 0-2.176.474-3.935 1.423-5.278.95-1.342 2.42-2.338 4.41-2.986.926-.324 2.523-.903 4.792-1.736-1.111-.694-2.084-1.62-2.917-2.778-.833-1.157-1.25-2.36-1.25-3.61 0-4.63 1.76-7.686 5.278-9.168h.208c.51-.138 1.007-.277 1.493-.416.486-.14 1.331-.44 2.535-.903a23.79 23.79 0 0 0 3.264-1.528c.972-.555 2.048-1.33 3.229-2.326 1.18-.996 2.176-2.072 2.986-3.23.81-1.157 1.493-2.592 2.049-4.305.555-1.713.833-3.542.833-5.486 2.269 0 4.63 1.065 7.083 3.194 2.454 2.13 3.68 4.352 3.68 6.667 0 1.713-.184 3.102-.555 4.167-.37 1.065-.995 2.222-1.875 3.472h4.792c2.407 0 4.468.856 6.18 2.57 1.714 1.712 2.57 3.773 2.57 6.18 0 3.148-1.296 6.042-3.889 8.68l-.07.07h1.806c2.408 0 4.468.856 6.18 2.57 1.714 1.712 2.57 3.773 2.57 6.18 0 3.194-1.273 6.111-3.82 8.75h1.598zm-35-20.764c-2.13 0-3.935.74-5.417 2.222-1.481 1.482-2.222 3.287-2.222 5.417s.74 3.935 2.222 5.417c1.482 1.481 3.287 2.222 5.417 2.222s3.935-.74 5.417-2.222c1.481-1.482 2.222-3.287 2.222-5.417s-.74-3.935-2.222-5.417c-1.482-1.481-3.287-2.222-5.417-2.222zm22.778 22.5a1.13 1.13 0 0 0 .07-1.146c-.186-.393-.51-.59-.973-.59h-26.25c-.463 0-.787.197-.972.59a1.13 1.13 0 0 0 .07 1.146 18.048 18.048 0 0 0 6.145 5.139c2.43 1.25 5.058 1.875 7.882 1.875s5.451-.625 7.882-1.875a18.048 18.048 0 0 0 6.146-5.139zm-5.278-7.222c2.13 0 3.935-.74 5.417-2.222 1.481-1.482 2.222-3.287 2.222-5.417s-.74-3.935-2.222-5.417c-1.482-1.481-3.287-2.222-5.417-2.222s-3.935.74-5.417 2.222c-1.481 1.482-2.222 3.287-2.222 5.417s.74 3.935 2.222 5.417c1.482 1.481 3.287 2.222 5.417 2.222zm-17.5-3.264c-1.204 0-2.234-.428-3.09-1.285-.857-.856-1.285-1.886-1.285-3.09 0-.417.07-.856.208-1.32.37.88 1.019 1.32 1.945 1.32.602 0 1.122-.22 1.562-.66.44-.44.66-.937.66-1.493 0-.972-.44-1.643-1.32-2.014a4.145 4.145 0 0 1 1.32-.208c1.204 0 2.234.428 3.09 1.285.857.856 1.285 1.886 1.285 3.09s-.428 2.234-1.285 3.09c-.856.857-1.886 1.285-3.09 1.285zM204.097 26.75c1.806 0 3.345.637 4.618 1.91 1.273 1.273 1.91 2.812 1.91 4.618v48.194c0 1.806-.637 3.345-1.91 4.618-1.273 1.273-2.812 1.91-4.618 1.91h-48.194c-1.806 0-3.345-.637-4.618-1.91-1.273-1.273-1.91-2.812-1.91-4.618V33.278c0-1.806.637-3.345 1.91-4.618 1.273-1.273 2.812-1.91 4.618-1.91h6.597v-7.083c0-.463.162-.857.486-1.18a1.607 1.607 0 0 1 1.18-.487h5.417c.463 0 .857.162 1.18.486.325.324.487.718.487 1.18v7.084h17.5v-7.083c0-.463.162-.857.486-1.18a1.607 1.607 0 0 1 1.18-.487h5.417c.463 0 .857.162 1.18.486.325.324.487.718.487 1.18v7.084h6.597zm0 54.722V39.875h-48.194v41.597h48.194zm-34.514-24.097h-5.416c-.463 0-.857-.162-1.18-.486a1.607 1.607 0 0 1-.487-1.18v-5.417c0-.463.162-.857.486-1.18a1.607 1.607 0 0 1 1.18-.487h5.417c.463 0 .857.162 1.18.486.325.324.487.718.487 1.18v5.417c0 .463-.162.857-.486 1.18a1.607 1.607 0 0 1-1.18.487zm13.125 0h-5.416c-.463 0-.857-.162-1.18-.486a1.607 1.607 0 0 1-.487-1.18v-5.417c0-.463.162-.857.486-1.18a1.607 1.607 0 0 1 1.18-.487h5.417c.463 0 .857.162 1.18.486.325.324.487.718.487 1.18v5.417c0 .463-.162.857-.486 1.18a1.607 1.607 0 0 1-1.18.487zm13.125 0h-5.416c-.463 0-.857-.162-1.18-.486a1.607 1.607 0 0 1-.487-1.18v-5.417c0-.463.162-.857.486-1.18a1.607 1.607 0 0 1 1.18-.487h5.417c.463 0 .857.162 1.18.486.325.324.487.718.487 1.18v5.417c0 .463-.162.857-.486 1.18a1.607 1.607 0 0 1-1.18.487zM182.708 70.5h-5.416c-.463 0-.857-.162-1.18-.486a1.607 1.607 0 0 1-.487-1.18v-5.417c0-.463.162-.857.486-1.18a1.607 1.607 0 0 1 1.18-.487h5.417c.463 0 .857.162 1.18.486.325.324.487.718.487 1.18v5.417c0 .463-.162.857-.486 1.18a1.607 1.607 0 0 1-1.18.487zm-13.125 0h-5.416c-.463 0-.857-.162-1.18-.486a1.607 1.607 0 0 1-.487-1.18v-5.417c0-.463.162-.857.486-1.18a1.607 1.607 0 0 1 1.18-.487h5.417c.463 0 .857.162 1.18.486.325.324.487.718.487 1.18v5.417c0 .463-.162.857-.486 1.18a1.607 1.607 0 0 1-1.18.487zm26.25 0h-5.416c-.463 0-.857-.162-1.18-.486a1.607 1.607 0 0 1-.487-1.18v-5.417c0-.463.162-.857.486-1.18a1.607 1.607 0 0 1 1.18-.487h5.417c.463 0 .857.162 1.18.486.325.324.487.718.487 1.18v5.417c0 .463-.162.857-.486 1.18a1.607 1.607 0 0 1-1.18.487zM324.306 31.403c.555.509 1.018 1.215 1.388 2.118.37.903.556 1.748.556 2.535v45.416c0 1.806-.637 3.345-1.91 4.618-1.273 1.273-2.812 1.91-4.618 1.91h-39.444c-1.806 0-3.345-.637-4.618-1.91-1.273-1.273-1.91-2.812-1.91-4.618V24.528c0-1.806.637-3.345 1.91-4.618 1.273-1.273 2.812-1.91 4.618-1.91h27.916c.787 0 1.632.185 2.535.556.903.37 1.609.833 2.118 1.388l11.459 11.459zm-3.056 3.055L309.792 23a2.541 2.541 0 0 0-1.042-.556V35.5h13.056a2.541 2.541 0 0 0-.556-1.042zm-1.528 49.167c.602 0 1.111-.208 1.528-.625.417-.417.625-.926.625-1.528V39.875h-14.236c-.88 0-1.644-.324-2.292-.972-.648-.648-.972-1.412-.972-2.292V22.375h-24.097c-.602 0-1.111.208-1.528.625a2.078 2.078 0 0 0-.625 1.528v56.944c0 .602.208 1.111.625 1.528.417.417.926.625 1.528.625h39.444zm-8.264-35c.463 0 .857.162 1.18.486.325.324.487.718.487 1.18v1.042c0 .463-.162.857-.486 1.18a1.607 1.607 0 0 1-1.18.487h-22.917c-.463 0-.857-.162-1.18-.486a1.607 1.607 0 0 1-.487-1.18v-1.042c0-.463.162-.857.486-1.18a1.607 1.607 0 0 1 1.18-.487h22.917zm0 8.75c.463 0 .857.162 1.18.486.325.324.487.718.487 1.18v1.042c0 .463-.162.857-.486 1.18a1.607 1.607 0 0 1-1.18.487h-22.917c-.463 0-.857-.162-1.18-.486a1.607 1.607 0 0 1-.487-1.18v-1.042c0-.463.162-.857.486-1.18a1.607 1.607 0 0 1 1.18-.487h22.917zm0 8.75c.463 0 .857.162 1.18.486.325.324.487.718.487 1.18v1.042c0 .463-.162.857-.486 1.18a1.607 1.607 0 0 1-1.18.487h-22.917c-.463 0-.857-.162-1.18-.486a1.607 1.607 0 0 1-.487-1.18v-1.042c0-.463.162-.857.486-1.18a1.607 1.607 0 0 1 1.18-.487h22.917zM414.861 18h9.375c.648 0 1.204.231 1.667.694.463.463.694 1.019.694 1.667v19.514h9.306c1.25 0 2.106.567 2.57 1.701.462 1.135.254 2.118-.626 2.952l-16.32 16.389c-.508.555-1.157.833-1.944.833-.787 0-1.435-.278-1.944-.833l-15.556-16.39c-.833-.879-1.007-1.874-.52-2.985.486-1.111 1.33-1.667 2.534-1.667h8.403V20.361c0-.417.116-.81.347-1.18.232-.37.521-.66.868-.869.348-.208.73-.312 1.146-.312zm43.056 46.32c.416.509.764 1.157 1.041 1.944.278.787.417 1.505.417 2.153v13.055c0 1.806-.637 3.345-1.91 4.618-1.273 1.273-2.812 1.91-4.618 1.91h-65.694c-1.806 0-3.345-.637-4.618-1.91-1.273-1.273-1.91-2.812-1.91-4.618V68.417c0-.648.139-1.366.417-2.153.277-.787.625-1.435 1.041-1.945L395 48.21c.278-.417.671-.637 1.18-.66.51-.024.926.15 1.25.52l3.82 4.028c.278.324.417.718.417 1.18 0 .371-.116.695-.348.973l-5.972 7.5h12.64l4.374 8.75h15.278l4.375-8.75h12.639l-6.042-7.57a1.759 1.759 0 0 1-.347-1.041c0-.417.139-.787.417-1.111l3.888-3.959a1.45 1.45 0 0 1 1.216-.52c.486.023.89.22 1.215.59l12.917 16.18zM573.125 28.139c1.296 1.296 1.944 2.847 1.944 4.653 0 1.805-.648 3.356-1.944 4.652l-6.32 6.32c-.277.278-.648.417-1.11.417-.464 0-.857-.14-1.181-.417l-15.208-15.208c-.278-.325-.417-.718-.417-1.181 0-.463.139-.833.417-1.111l6.319-6.32c1.296-1.296 2.847-1.944 4.653-1.944 1.805 0 3.356.648 4.653 1.944l8.194 8.195zM546.25 31.61l15.208 15.208c.278.325.417.718.417 1.181 0 .463-.139.833-.417 1.111l-35.902 35.903-16.667 2.917c-1.111.231-2.072-.058-2.882-.868-.81-.81-1.1-1.771-.868-2.882l2.917-16.667 35.902-35.903c.278-.278.648-.417 1.111-.417.463 0 .857.14 1.181.417zm-21.528 32.847l21.042-21.041c.417-.37.625-.822.625-1.355a1.79 1.79 0 0 0-.59-1.354c-.394-.37-.845-.555-1.355-.555-.509 0-.949.185-1.319.555L522.014 61.75c-.37.37-.556.822-.556 1.354 0 .533.186.984.556 1.354.37.37.822.556 1.354.556.532 0 .984-.185 1.354-.556zm-7.639 4.93h-4.93l-1.528 8.82 4.236 4.236 8.82-1.527v-4.93h-6.598v-6.598zM688.472 26.75c1.806 0 3.345.637 4.618 1.91 1.273 1.273 1.91 2.812 1.91 4.618v39.444c0 1.806-.637 3.345-1.91 4.618-1.273 1.273-2.812 1.91-4.618 1.91h-56.944c-1.806 0-3.345-.637-4.618-1.91-1.273-1.273-1.91-2.812-1.91-4.618V33.278c0-1.806.637-3.345 1.91-4.618 1.273-1.273 2.812-1.91 4.618-1.91h56.944zm-56.944 4.375c-.556 0-1.053.22-1.493.66-.44.44-.66.937-.66 1.493v5.694c3.194 2.685 10.046 8.218 20.556 16.597.092.047.763.59 2.013 1.632 1.25 1.042 2.188 1.794 2.813 2.257.625.463 1.47.961 2.535 1.493 1.064.533 1.967.799 2.708.799.74 0 1.632-.266 2.674-.799 1.041-.532 1.886-1.03 2.534-1.493.648-.463 1.586-1.203 2.813-2.222 1.227-1.018 1.91-1.574 2.048-1.667 10.51-8.38 17.362-13.912 20.556-16.597v-5.694c0-.556-.22-1.053-.66-1.493-.44-.44-.937-.66-1.493-.66h-56.944zm56.944 43.75c.556 0 1.053-.22 1.493-.66.44-.44.66-.937.66-1.493V44.667c-3.148 2.592-9.097 7.36-17.847 14.305-.232.14-.868.66-1.91 1.563-1.042.903-1.875 1.574-2.5 2.014-.625.44-1.447.995-2.465 1.666-1.019.672-2.026 1.158-3.021 1.459-.995.3-1.956.451-2.882.451-.787 0-1.62-.127-2.5-.382a13.243 13.243 0 0 1-2.396-.937 23.678 23.678 0 0 1-2.36-1.424c-.857-.579-1.54-1.088-2.05-1.528-.509-.44-1.145-.972-1.91-1.597a270.699 270.699 0 0 1-1.562-1.285c-8.75-6.944-14.699-11.713-17.847-14.305v28.055c0 .556.22 1.053.66 1.493.44.44.937.66 1.493.66h56.944zM763.889 37.792c-.695-.602-1.053-1.378-1.077-2.327-.023-.949.29-1.747.938-2.396l2.986-2.986c.648-.648 1.424-.972 2.327-.972.902 0 1.678.324 2.326.972l20.764 20.556c.648.648.972 1.435.972 2.361 0 .926-.324 1.713-.972 2.361l-20.764 20.556c-.648.648-1.424.972-2.327.972-.902 0-1.678-.324-2.326-.972l-2.986-2.986c-.648-.649-.96-1.447-.938-2.396.024-.95.382-1.725 1.077-2.327l10.555-9.722h-26.18c-.88 0-1.644-.324-2.292-.972-.648-.648-.972-1.412-.972-2.292v-4.444c0-.88.324-1.644.972-2.292.648-.648 1.412-.972 2.292-.972h26.18l-10.555-9.722zm37.986 41.458h-11.458c-.463 0-.857-.162-1.18-.486a1.607 1.607 0 0 1-.487-1.18v-5.417c0-.463.162-.857.486-1.18a1.607 1.607 0 0 1 1.18-.487h11.459c1.204 0 2.234-.428 3.09-1.285.857-.856 1.285-1.886 1.285-3.09v-26.25c0-1.204-.428-2.234-1.285-3.09-.856-.857-1.886-1.285-3.09-1.285h-11.458c-.463 0-.857-.162-1.18-.486a1.607 1.607 0 0 1-.487-1.18v-5.417c0-.463.162-.857.486-1.18a1.607 1.607 0 0 1 1.18-.487h11.459c3.611 0 6.701 1.285 9.27 3.854 2.57 2.57 3.855 5.66 3.855 9.271v26.25c0 3.611-1.285 6.701-3.854 9.27-2.57 2.57-5.66 3.855-9.271 3.855zM932.847 57.375c1.806 0 3.345.637 4.618 1.91 1.273 1.273 1.91 2.835 1.91 4.687v17.5c0 1.806-.637 3.345-1.91 4.618-1.273 1.273-2.812 1.91-4.618 1.91h-65.694c-1.806 0-3.345-.637-4.618-1.91-1.273-1.273-1.91-2.812-1.91-4.618v-17.5c0-1.852.637-3.414 1.91-4.687 1.273-1.273 2.812-1.91 4.618-1.91h12.639l-6.32-6.32a6.339 6.339 0 0 1-1.77-3.333 6.432 6.432 0 0 1 .381-3.785 6.444 6.444 0 0 1 2.43-2.95c1.112-.742 2.316-1.112 3.612-1.112h8.75V24.528c0-1.806.648-3.345 1.944-4.618 1.297-1.273 2.848-1.91 4.653-1.91h13.125c1.806 0 3.345.637 4.618 1.91 1.273 1.273 1.91 2.812 1.91 4.618v15.347h8.75c1.343 0 2.558.37 3.646 1.111a6.516 6.516 0 0 1 2.396 2.952 6.432 6.432 0 0 1 .382 3.784 6.339 6.339 0 0 1-1.771 3.334l-6.32 6.319h12.64zm-54.722-10.903L900 68.278l21.875-21.806h-15.278V24.528h-13.194v21.944h-15.278zm54.722 35v-17.5h-19.236l-8.958 8.959c-1.297 1.296-2.847 1.944-4.653 1.944-1.806 0-3.356-.648-4.653-1.944l-9.028-8.959h-19.166v17.5h65.694zm-12.083-8.784c0-.903.324-1.679.972-2.327.648-.648 1.424-.972 2.327-.972.902 0 1.678.324 2.326.972.648.648.972 1.424.972 2.326 0 .903-.324 1.679-.972 2.327-.648.648-1.424.972-2.327.972-.902 0-1.678-.324-2.326-.972-.648-.648-.972-1.424-.972-2.326zM1000.833 48.625c.463 0 .857.162 1.18.486.325.324.487.718.487 1.18v36.042c0 .463-.162.857-.486 1.18a1.607 1.607 0 0 1-1.18.487h-14.167c-.463 0-.857-.162-1.18-.486a1.607 1.607 0 0 1-.487-1.18V50.291c0-.463.162-.857.486-1.18a1.607 1.607 0 0 1 1.18-.487h14.167zm-7.083 35c.602 0 1.123-.22 1.563-.66.44-.44.66-.949.66-1.528 0-.578-.22-1.087-.66-1.527-.44-.44-.961-.66-1.563-.66s-1.123.22-1.563.66c-.44.44-.66.949-.66 1.528 0 .578.22 1.087.66 1.527.44.44.961.66 1.563.66zM1027.639 18c.648 0 1.285.046 1.91.139.625.092 1.33.266 2.118.52a6.533 6.533 0 0 1 2.152 1.181c.649.533 1.262 1.18 1.84 1.945.58.764 1.03 1.782 1.355 3.055.324 1.273.486 2.697.486 4.271 0 1.343-.197 2.662-.59 3.958-.394 1.297-.834 2.373-1.32 3.23a54.287 54.287 0 0 0-1.527 2.916c-.533 1.088-.915 2.026-1.146 2.813h13.889c1.481 0 2.858.382 4.131 1.146 1.274.764 2.269 1.747 2.987 2.951a7.463 7.463 0 0 1 1.076 3.889c0 1.204-.243 2.419-.73 3.646-.485 1.227-1.122 2.257-1.909 3.09h-.07c.741 1.528 1.008 3.333.8 5.417-.21 2.083-.892 3.889-2.05 5.416.556 1.852.614 3.727.174 5.625-.44 1.898-1.238 3.45-2.396 4.653.602 2.408.325 4.445-.833 6.111-.648.926-1.528 1.69-2.639 2.292-1.11.602-2.488 1.018-4.132 1.25-1.643.231-3.032.37-4.166.417-1.135.046-2.674.069-4.618.069h-.417c-2.037 0-4.155-.255-6.354-.764-2.2-.51-3.912-1.007-5.14-1.493a141.563 141.563 0 0 1-4.826-2.049c-3.24-1.481-5.648-2.222-7.222-2.222-.416 0-.787-.162-1.11-.486a1.607 1.607 0 0 1-.487-1.18V50.569c0-.463.162-.856.486-1.18a35.842 35.842 0 0 0 3.542-3.993 74.632 74.632 0 0 0 2.916-4.028c.787-1.18 1.69-2.465 2.709-3.854 1.018-1.389 2.037-2.57 3.055-3.542.602-.648 1.146-1.47 1.632-2.465.486-.995.834-1.852 1.042-2.57.208-.717.474-1.724.799-3.02.185-.973.37-1.771.555-2.396.185-.625.475-1.435.868-2.43.394-.996.857-1.76 1.39-2.292.531-.533 1.122-.799 1.77-.799zM1150.139 65.708l-.625.834c-.232.416-.567.66-1.007.729-.44.07-.845-.012-1.215-.243l-8.75-6.042c-.463-.324-.695-.764-.695-1.32V41.543c0-.463.162-.857.486-1.18.324-.325.695-.487 1.111-.487h1.112c.463 0 .856.162 1.18.486.324.324.486.718.486 1.18v16.667l7.5 5.209c.37.231.602.567.695 1.007.092.44 0 .868-.278 1.284zm20.486-8.333c0 4.306-.845 8.391-2.535 12.257-1.69 3.866-4.062 7.21-7.118 10.035l4.653 4.583c.417.417.625.937.625 1.563 0 .625-.208 1.145-.625 1.562-.417.417-.938.625-1.563.625-.624 0-1.145-.208-1.562-.625l-4.93-4.93C1152.337 86.147 1146.481 88 1140 88c-6.482 0-12.338-1.852-17.57-5.556l-4.93 4.931c-.417.417-.938.625-1.563.625-.624 0-1.145-.208-1.562-.625-.417-.417-.625-.937-.625-1.563 0-.625.208-1.145.625-1.562l4.653-4.583c-3.056-2.824-5.428-6.17-7.118-10.035-1.69-3.866-2.535-7.951-2.535-12.257 0-5.093 1.18-9.861 3.542-14.306-2.361-2.824-3.542-6.088-3.542-9.791 0-4.213 1.493-7.813 4.48-10.799 2.985-2.986 6.585-4.479 10.798-4.479 2.037 0 3.97.37 5.798 1.111 1.83.74 3.426 1.77 4.792 3.09a16.02 16.02 0 0 1 3.299 4.549 30.625 30.625 0 0 1 2.916 0c1.25-2.593 3.114-4.7 5.59-6.32 2.477-1.62 5.244-2.43 8.3-2.43 4.212 0 7.812 1.493 10.798 4.48 2.986 2.985 4.479 6.585 4.479 10.798 0 3.703-1.18 6.967-3.542 9.791 2.361 4.445 3.542 9.213 3.542 14.306zm-15.278-35c-1.898 0-3.657.451-5.278 1.354a11.291 11.291 0 0 0-3.958 3.646c3.75.74 7.21 2.13 10.382 4.167a30.376 30.376 0 0 1 8.09 7.57c1.111-1.76 1.667-3.705 1.667-5.834 0-3.01-1.065-5.579-3.194-7.709-2.13-2.13-4.7-3.194-7.709-3.194zm-30.694 0c-3.01 0-5.579 1.065-7.709 3.194-2.13 2.13-3.194 4.7-3.194 7.709 0 2.13.556 4.074 1.667 5.833a30.376 30.376 0 0 1 8.09-7.57 29.672 29.672 0 0 1 10.382-4.166 11.291 11.291 0 0 0-3.958-3.646c-1.62-.903-3.38-1.354-5.278-1.354zm41.597 35c0-7.269-2.558-13.46-7.674-18.576-5.115-5.116-11.307-7.674-18.576-7.674s-13.46 2.558-18.576 7.674c-5.116 5.115-7.674 11.307-7.674 18.576s2.558 13.46 7.674 18.576c5.115 5.116 11.307 7.674 18.576 7.674s13.46-2.558 18.576-7.674c5.116-5.115 7.674-11.307 7.674-18.576z"/></g></svg>